<svg width="53" height="71" viewBox="0 0 53 71" fill="none" xmlns="http://www.w3.org/2000/svg">
<path d="M44.2865 35.5037L27.981 8.39766C27.868 8.20836 27.719 8.04327 27.5424 7.9118C27.3658 7.78033 27.1652 7.68506 26.952 7.63143C26.7387 7.5778 26.5171 7.56686 26.2996 7.59924C26.0822 7.63162 25.8732 7.70667 25.6847 7.82013C25.4338 7.96784 25.227 8.18035 25.0858 8.43553L9.66205 35.7073C7.95811 38.5041 7.06187 41.7213 7.07335 44.9998C7.07164 48.2909 7.87418 51.5322 9.41059 54.4395C10.947 57.3468 13.1704 59.8313 15.8858 61.6751C18.6012 63.519 21.7257 64.666 24.9854 65.0154C28.2451 65.3649 31.5404 64.9062 34.5824 63.6796C34.6601 63.6538 34.7358 63.6222 34.8088 63.5849L34.9832 63.5139C35.2972 63.3183 35.5387 63.0249 35.671 62.6786C35.8034 62.3322 35.8191 61.9519 35.716 61.5957C35.6129 61.2395 35.3965 60.9269 35.0999 60.7057C34.8032 60.4845 34.4427 60.3668 34.0732 60.3706C33.8264 60.3709 33.5829 60.4276 33.3612 60.5363C31.3817 61.3326 29.2694 61.7439 27.137 61.7482C22.7074 61.752 18.4575 59.99 15.3213 56.8495C12.1852 53.7089 10.4193 49.4468 10.4118 44.9998C10.4163 42.3118 11.1693 39.6785 12.5855 37.3972L26.59 12.6439L41.4102 37.26C42.8955 39.7263 43.815 41.8849 43.815 45.0093C43.82 48.1654 42.9286 51.2576 41.2451 53.9231C40.99 54.2364 40.658 54.4776 40.2818 54.6229C39.9056 54.7681 39.4982 54.8125 39.0997 54.7516C38.8607 54.7609 38.6234 54.7078 38.4109 54.5974C38.1985 54.4871 38.0183 54.3232 37.8878 54.122C37.5674 53.5915 37.416 52.9754 37.454 52.3562V45.8708C37.4871 44.0092 37.0335 42.1713 36.1385 40.5405C35.2902 39.0007 34.0313 37.7286 32.503 36.8671C30.8719 36.0043 29.056 35.5534 27.2124 35.5534C25.3688 35.5534 23.5529 36.0043 21.9218 36.8671C20.3935 37.7286 19.1346 39.0007 18.2863 40.5405C17.395 42.1726 16.9431 44.0098 16.9755 45.8708C16.9467 47.7276 17.3915 49.5609 18.2675 51.1964C19.0893 52.7479 20.3296 54.0357 21.8464 54.9125C23.4393 55.8087 25.2405 56.2645 27.0662 56.2333C28.5706 56.2144 30.0455 55.812 31.3524 55.064C32.662 54.3833 33.7709 53.3697 34.5683 52.1243V53.5444C34.5451 54.1011 34.6413 54.6564 34.8504 55.1725C35.0595 55.6887 35.3765 56.1537 35.7801 56.5362C36.6379 57.3123 37.7617 57.7245 38.9158 57.6866C41.4668 57.7197 43.2397 57.2842 44.5742 54.9409C46.3013 51.9154 47.2055 48.487 47.1959 44.9998C47.1534 41.0944 46.0217 38.3819 44.2865 35.5037ZM33.5922 49.7053C32.977 50.7965 32.075 51.6972 30.9846 52.3089C29.8306 52.9483 28.5304 53.2746 27.2124 53.2557C25.8869 53.2788 24.5774 52.9627 23.4072 52.3373C22.3102 51.7409 21.4105 50.836 20.8185 49.7337C20.1842 48.5637 19.8595 47.2501 19.8754 45.9182C19.8548 44.5948 20.1799 43.2891 20.8185 42.1311C21.4204 41.0313 22.3172 40.1228 23.4072 39.5085C24.5714 38.8976 25.8657 38.5785 27.1794 38.5785C28.4931 38.5785 29.7874 38.8976 30.9516 39.5085C32.0601 40.1159 32.9754 41.0249 33.5922 42.1311C34.207 43.298 34.5284 44.5981 34.5284 45.9182C34.5284 47.2383 34.207 48.5384 33.5922 49.7053Z" fill="url(#paint0_linear_9_4578)"/>
<defs>
<linearGradient id="paint0_linear_9_4578" x1="7.04977" y1="36.3558" x2="47.1723" y2="36.3558" gradientUnits="userSpaceOnUse">
<stop/>
<stop offset="1"/>
</linearGradient>
</defs>
</svg>
