<svg width="31" height="29" viewBox="0 0 31 29" fill="none" xmlns="http://www.w3.org/2000/svg">
<path fill-rule="evenodd" clip-rule="evenodd" d="M19.5365 10.7238C19.5365 8.63835 17.7293 6.94775 15.5 6.94775C13.2707 6.94775 11.4636 8.63835 11.4636 10.7238C11.4636 12.8092 13.2707 14.4998 15.5 14.4998H14.6927C10.68 14.4998 7.42709 17.5429 7.42709 21.2967C7.42709 21.7138 7.78853 22.0519 8.23439 22.0519H22.7656C23.2115 22.0519 23.5729 21.7138 23.5729 21.2967C23.5729 17.5429 20.32 14.4998 16.3073 14.4998H15.5C16.5705 14.4998 17.5972 14.102 18.3542 13.3939C19.1112 12.6857 19.5365 11.7253 19.5365 10.7238ZM14.6927 16.0103C11.883 16.0096 9.49957 17.9401 9.09819 20.5415H21.9018C21.5005 17.9401 19.117 16.0096 16.3073 16.0103H14.6927ZM13.0781 10.7238C13.0781 11.9751 14.1624 12.9894 15.5 12.9894C16.1423 12.9894 16.7583 12.7507 17.2125 12.3258C17.6667 11.9009 17.9219 11.3247 17.9219 10.7238C17.9219 9.47253 16.8376 8.45817 15.5 8.45817C14.1624 8.45817 13.0781 9.47253 13.0781 10.7238Z" fill="black"/>
<rect x="1.5" y="1.5" width="28" height="26" rx="4.5" stroke="black" stroke-width="3"/>
</svg>
