<svg width="34" height="33" viewBox="0 0 34 33" fill="none" xmlns="http://www.w3.org/2000/svg">
<path fill-rule="evenodd" clip-rule="evenodd" d="M31.125 16.3326C31.1327 16.2219 31.1327 16.1108 31.125 16.0001V4.56841C31.0717 2.09103 28.9715 0.122574 26.4287 0.166745H4.94625C2.40352 0.122574 0.303324 2.09103 0.25 4.56841V24.2651C0.303324 26.7425 2.40352 28.7109 4.94625 28.6667H14.875C14.9669 28.6744 15.0593 28.6744 15.1512 28.6667C18.6469 32.9647 25.0565 33.6877 29.4675 30.2817C33.8785 26.8758 34.6206 20.6305 31.125 16.3326ZM4.94625 25.5001C4.20389 25.5284 3.56854 24.9859 3.5 24.2651V4.56841C3.56854 3.84762 4.20389 3.30507 4.94625 3.33341H26.4288C27.1711 3.30507 27.8065 3.84762 27.875 4.56841V13.6567C24.7291 11.9796 20.9086 12.0432 17.8234 13.8241C14.7381 15.6051 12.8454 18.8393 12.8438 22.3334C12.8462 23.4102 13.0273 24.4796 13.38 25.5001H4.94625ZM16.0938 22.3334C16.0938 26.0498 19.1858 29.0626 23 29.0626C26.8105 29.0539 29.8973 26.0462 29.9062 22.3334C29.9062 18.617 26.8142 15.6042 23 15.6042C19.1858 15.6042 16.0938 18.617 16.0938 22.3334ZM23 9.66674H8.375C7.47754 9.66674 6.75 8.95786 6.75 8.08341C6.75 7.20896 7.47754 6.50008 8.375 6.50008H23C23.8975 6.50008 24.625 7.20896 24.625 8.08341C24.625 8.95786 23.8975 9.66674 23 9.66674ZM26.2594 23.9167C26.2594 23.4946 26.0864 23.0899 25.7787 22.7926L24.625 21.6842V19.1667C24.625 18.2923 23.8975 17.5834 23 17.5834C22.1025 17.5834 21.375 18.2923 21.375 19.1667V22.3334C21.3725 22.7543 21.5421 23.1588 21.8463 23.4576L23.4713 25.0409C23.7764 25.3407 24.1917 25.5093 24.625 25.5093C25.0583 25.5093 25.4736 25.3407 25.7787 25.0409C26.0864 24.7436 26.2594 24.3389 26.2594 23.9167Z" fill="black"/>
</svg>
