<svg width="27" height="28" viewBox="0 0 27 28" fill="none" xmlns="http://www.w3.org/2000/svg">
<path fill-rule="evenodd" clip-rule="evenodd" d="M23.8334 8.99766L25.9775 10.9481C26.5119 11.4192 26.5639 12.2341 26.0938 12.7693C25.6226 13.3037 24.8078 13.3557 24.2725 12.8856L23.8334 12.4981V23.5418C23.8334 25.6819 22.0985 27.4168 19.9584 27.4168H16.0833C15.37 27.4168 14.7917 26.8385 14.7917 26.1252V19.6668C14.7972 19.3304 14.6613 19.0071 14.4171 18.7756C14.1776 18.5243 13.8471 18.38 13.5 18.3752C12.7866 18.3752 12.2083 18.9535 12.2083 19.6668V26.1252C12.2083 26.8385 11.6301 27.4168 10.9167 27.4168H7.04168C4.90158 27.4168 3.16668 25.6819 3.16668 23.5418V12.4981L2.72752 12.8856C2.189 13.3193 1.40442 13.252 0.947612 12.7329C0.490806 12.2138 0.523824 11.4271 1.02252 10.9481L3.16668 8.99766L4.2646 8.04182L12.6475 0.614739C13.1351 0.186363 13.8649 0.186363 14.3525 0.614739L22.7354 8.04182L23.8334 8.99766ZM19.9584 24.8335C20.6717 24.8335 21.25 24.2552 21.25 23.5418V10.1989L13.5 3.31432L5.75002 10.1989V23.5418C5.75002 24.2552 6.32832 24.8335 7.04168 24.8335H9.62502V19.6668C9.62502 17.5267 11.3599 15.7918 13.5 15.7918C15.6401 15.7918 17.375 17.5267 17.375 19.6668V24.8335H19.9584Z" fill="white"/>
</svg>
