<svg width="18" height="16" viewBox="0 0 18 16" fill="none" xmlns="http://www.w3.org/2000/svg">
<path fill-rule="evenodd" clip-rule="evenodd" d="M9.17228 1.01994C10.1384 0.214836 11.6126 0.796577 11.7686 2.04447C12.2493 5.89029 12.2493 9.78101 11.7686 13.6268C11.6126 14.8747 10.1384 15.4565 9.17228 14.6514L5.18786 11.331C5.14662 11.2967 5.09464 11.2778 5.04096 11.2778H1.70163C0.814464 11.2778 0.0952759 10.5586 0.0952759 9.67148V5.99982C0.0952759 5.11266 0.814464 4.39347 1.70163 4.39347H5.04096C5.09464 4.39347 5.14662 4.37465 5.18786 4.34028L9.17228 1.01994ZM10.4023 2.21525C10.3814 2.04769 10.1835 1.96958 10.0537 2.07768L6.06932 5.39803C5.78063 5.6386 5.41674 5.77034 5.04096 5.77034H1.70163C1.57489 5.77034 1.47215 5.87308 1.47215 5.99982V9.67148C1.47215 9.79822 1.57489 9.90096 1.70163 9.90096H5.04096C5.41674 9.90096 5.78063 10.0327 6.06932 10.2733L10.0537 13.5936C10.1835 13.7017 10.3814 13.6236 10.4023 13.4561C10.8689 9.72364 10.8689 5.94766 10.4023 2.21525Z" fill="black"/>
<path d="M16.304 2.27838C16.6649 2.15899 17.0544 2.35484 17.1738 2.71582C17.7065 4.32674 17.9946 6.04825 17.9946 7.83566C17.9946 9.62308 17.7065 11.3446 17.1738 12.9555C17.0544 13.3165 16.6649 13.5123 16.304 13.3929C15.943 13.2735 15.7471 12.8841 15.8665 12.5231C16.3538 11.05 16.6178 9.47433 16.6178 7.83566C16.6178 6.19699 16.3538 4.62136 15.8665 3.14817C15.7471 2.78719 15.943 2.39777 16.304 2.27838Z" fill="black"/>
<path d="M14.5821 4.11598C14.4509 3.7591 14.0553 3.57608 13.6984 3.70721C13.3416 3.83834 13.1585 4.23395 13.2897 4.59084C13.661 5.6014 13.864 6.69405 13.864 7.83566C13.864 8.78259 13.7243 9.69566 13.4649 10.556C13.4505 10.604 13.4356 10.6518 13.4204 10.6994C13.3795 10.8276 13.3359 10.9547 13.2897 11.0805C13.1585 11.4374 13.3416 11.833 13.6984 11.9641C14.0553 12.0952 14.4509 11.9122 14.5821 11.5553C14.6351 11.411 14.6852 11.2652 14.7321 11.118C14.7496 11.0633 14.7666 11.0085 14.7832 10.9535C15.081 9.96561 15.2409 8.91868 15.2409 7.83566C15.2409 6.52965 15.0084 5.27638 14.5821 4.11598Z" fill="black"/>
</svg>
