<svg width="23" height="23" viewBox="0 0 23 23" fill="none" xmlns="http://www.w3.org/2000/svg">
<path fill-rule="evenodd" clip-rule="evenodd" d="M11.4998 21.0837C6.20711 21.0837 1.9165 16.7931 1.9165 11.5003C1.9165 6.2076 6.20711 1.91699 11.4998 1.91699C14.0415 1.91699 16.4791 2.92666 18.2763 4.72389C20.0735 6.52111 21.0832 8.95867 21.0832 11.5003C21.0832 16.7931 16.7926 21.0837 11.4998 21.0837ZM16.0136 7.94491C16.195 8.12485 16.2971 8.3698 16.2971 8.62533C16.2971 8.88085 16.195 9.1258 16.0136 9.30574L10.2636 15.0557C10.0836 15.2372 9.8387 15.3392 9.58317 15.3392C9.32764 15.3392 9.0827 15.2372 8.90275 15.0557L6.98609 13.1391C6.743 12.896 6.64806 12.5417 6.73704 12.2096C6.82601 11.8775 7.08539 11.6182 7.41745 11.5292C7.74952 11.4402 8.10383 11.5352 8.34692 11.7782L9.58317 13.0241L14.6528 7.94491C14.8327 7.76348 15.0776 7.66144 15.3332 7.66144C15.5887 7.66144 15.8336 7.76348 16.0136 7.94491ZM11.4998 3.83366C15.734 3.83366 19.1665 7.26614 19.1665 11.5003C19.1665 13.5337 18.3588 15.4837 16.921 16.9215C15.4832 18.3593 13.5332 19.167 11.4998 19.167C7.26565 19.167 3.83317 15.7345 3.83317 11.5003C3.83317 7.26614 7.26565 3.83366 11.4998 3.83366Z" fill="#CACACA"/>
</svg>
