<svg width="30" height="31" viewBox="0 0 30 31" fill="none" xmlns="http://www.w3.org/2000/svg">
<rect y="0.408203" width="30" height="30" rx="15" fill="#F07C50"/>
<path d="M21 16.3435C21 16.6196 20.7761 16.8435 20.5 16.8435H17.0529C16.7768 16.8435 16.5529 17.0674 16.5529 17.3435V20.9082C16.5529 21.1843 16.3291 21.4082 16.0529 21.4082H13.9471C13.6709 21.4082 13.4471 21.1843 13.4471 20.9082V17.3435C13.4471 17.0674 13.2232 16.8435 12.9471 16.8435H9.5C9.22386 16.8435 9 16.6196 9 16.3435V14.4729C9 14.1968 9.22386 13.9729 9.5 13.9729H12.9471C13.2232 13.9729 13.4471 13.7491 13.4471 13.4729V9.9082C13.4471 9.63206 13.6709 9.4082 13.9471 9.4082H16.0529C16.3291 9.4082 16.5529 9.63206 16.5529 9.9082V13.4729C16.5529 13.7491 16.7768 13.9729 17.0529 13.9729H20.5C20.7761 13.9729 21 14.1968 21 14.4729V16.3435Z" fill="white"/>
</svg>
