<svg width="24" height="24" viewBox="0 0 24 24" fill="none" xmlns="http://www.w3.org/2000/svg">
<path d="M22 12.0001C21.997 12.1264 21.9733 12.2514 21.93 12.3701C21.9069 12.4123 21.8801 12.4525 21.85 12.4901C21.8238 12.5455 21.7938 12.5989 21.76 12.6501L15.76 19.6501C15.5278 19.9216 15.1683 20.0486 14.8171 19.9833C14.4658 19.9179 14.1761 19.6701 14.0571 19.3333C13.938 18.9964 14.0078 18.6216 14.24 18.3501L18.83 13.0001H3C2.44772 13.0001 2 12.5524 2 12.0001C2 11.4478 2.44772 11.0001 3 11.0001H18.83L14.24 5.65007C14.0078 5.37855 13.938 5.00376 14.0571 4.66689C14.1761 4.33002 14.4658 4.08224 14.8171 4.01689C15.1683 3.95154 15.5278 4.07855 15.76 4.35007L21.76 11.3501C21.7938 11.4012 21.8238 11.4547 21.85 11.5101C21.8801 11.5477 21.9069 11.5878 21.93 11.6301C21.9733 11.7488 21.997 11.8737 22 12.0001Z" fill="white"/>
</svg>
