<svg width="40" height="40" viewBox="0 0 40 40" fill="none" xmlns="http://www.w3.org/2000/svg">
<rect width="40" height="40" rx="10" fill="#212121"/>
<path fill-rule="evenodd" clip-rule="evenodd" d="M20.5 26.75C17.0482 26.75 14.25 23.9518 14.25 20.5C14.25 17.0482 17.0482 14.25 20.5 14.25C22.1576 14.25 23.7473 14.9085 24.9194 16.0806C26.0915 17.2527 26.75 18.8424 26.75 20.5C26.75 23.9518 23.9518 26.75 20.5 26.75ZM24.25 20.5C24.25 20.8452 23.9702 21.125 23.625 21.125H21.125V23.625C21.125 23.9702 20.8452 24.25 20.5 24.25C20.1548 24.25 19.875 23.9702 19.875 23.625V21.125H17.375C17.0298 21.125 16.75 20.8452 16.75 20.5C16.75 20.1548 17.0298 19.875 17.375 19.875H19.875V17.375C19.875 17.0298 20.1548 16.75 20.5 16.75C20.8452 16.75 21.125 17.0298 21.125 17.375V19.875H23.625C23.9702 19.875 24.25 20.1548 24.25 20.5ZM20.5001 15.4998C23.2615 15.4998 25.5001 17.7384 25.5001 20.4998C25.5001 21.8259 24.9733 23.0976 24.0356 24.0353C23.098 24.973 21.8262 25.4998 20.5001 25.4998C17.7387 25.4998 15.5001 23.2612 15.5001 20.4998C15.5001 17.7384 17.7387 15.4998 20.5001 15.4998Z" fill="white"/>
</svg>
