<svg width="24" height="24" viewBox="0 0 24 24" fill="none" xmlns="http://www.w3.org/2000/svg">
<path fill-rule="evenodd" clip-rule="evenodd" d="M12 22C6.47715 22 2 17.5228 2 12C2 6.47715 6.47715 2 12 2C14.6522 2 17.1957 3.05357 19.0711 4.92893C20.9464 6.8043 22 9.34784 22 12C22 17.5228 17.5228 22 12 22ZM16.8346 6.23264C17.2579 6.58743 17.2466 7.29775 16.8095 7.81918L8.89531 17.2605C8.45822 17.7819 7.76078 17.917 7.33753 17.5622C6.91428 17.2074 6.9255 16.4971 7.36259 15.9757L15.2768 6.53436C15.7139 6.01293 16.4114 5.87784 16.8346 6.23264ZM12 4C16.4183 4 20 7.58172 20 12C20 14.1217 19.1571 16.1566 17.6569 17.6569C16.1566 19.1571 14.1217 20 12 20C7.58172 20 4 16.4183 4 12C4 7.58172 7.58172 4 12 4Z" fill="#939393"/>
</svg>
