<svg width="35" height="35" viewBox="0 0 35 35" fill="none" xmlns="http://www.w3.org/2000/svg">
<path fill-rule="evenodd" clip-rule="evenodd" d="M29.4897 20.2943C29.1515 20.4844 28.8265 20.6967 28.5169 20.9299C28.6256 21.3211 28.7664 21.7027 28.938 22.071L28.9556 22.1135C29.4318 23.2615 30.0165 24.6709 29.1703 25.8265C28.3136 26.9965 26.7455 26.881 25.4822 26.7654C25.081 26.7373 24.6783 26.7373 24.2771 26.7654C24.1837 27.0045 24.0657 27.4755 23.9795 27.8193L23.9577 27.9065C23.6818 29.1343 23.3188 30.6654 21.9104 31.1132C21.69 31.1854 21.4599 31.2244 21.2279 31.2288C20.1541 31.0838 19.1639 30.5734 18.4256 29.7843C18.1154 29.4605 17.7805 29.1611 17.4238 28.8888C17.0711 29.1241 16.7363 29.3848 16.4219 29.6688L16.4162 29.6736C15.4734 30.4817 14.2993 31.488 12.9372 31.1132C11.5723 30.7376 11.1657 29.091 10.8899 27.8632L10.868 27.776C10.7819 27.4322 10.6639 26.9611 10.5704 26.7221C10.1692 26.694 9.76651 26.694 9.36529 26.7221C8.10207 26.8376 6.54846 26.9676 5.67727 25.7832C4.82862 24.6294 5.39913 23.2563 5.87213 22.1179L5.90959 22.0276C6.08112 21.6594 6.22195 21.2777 6.33066 20.8865C6.02099 20.6533 5.69599 20.441 5.35783 20.251C4.26885 19.6443 2.90399 18.7776 2.90399 17.3332C2.90399 15.8888 4.26885 15.0221 5.35783 14.4443C5.69599 14.2543 6.02099 14.0419 6.33066 13.8088C6.22195 13.4176 6.08112 13.0359 5.90959 12.6676L5.89194 12.6251C5.41573 11.4771 4.83108 10.0678 5.67727 8.91209C6.53394 7.74209 8.10207 7.85765 9.36529 7.9732C9.76651 8.0013 10.1692 8.0013 10.5704 7.9732C10.6639 7.73415 10.7819 7.2631 10.868 6.9193L10.868 6.91927L10.8899 6.83209C11.1657 5.60431 11.5287 4.0732 12.9372 3.62542C14.3129 3.18803 15.4254 4.14264 16.3559 4.94106L16.4219 4.99765C16.7363 5.28159 17.0711 5.54228 17.4238 5.77765C17.7764 5.54228 18.1112 5.28159 18.4256 4.99765L18.4521 4.97492C19.3911 4.16999 20.5439 3.18183 21.9104 3.62542C23.2898 4.0732 23.6818 5.60431 23.9577 6.83209L23.9795 6.91934L23.9796 6.91938C24.0657 7.26317 24.1837 7.73417 24.2771 7.9732C24.6783 8.0013 25.081 8.0013 25.4822 7.9732C26.7455 7.85765 28.2991 7.72765 29.1703 8.91209C30.0189 10.0659 29.4484 11.439 28.9754 12.5774L28.938 12.6676C28.7664 13.0359 28.6256 13.4176 28.5169 13.8088C28.8265 14.0419 29.1515 14.2543 29.4897 14.4443C30.5787 15.0221 31.9435 15.8888 31.9435 17.3332C31.9435 18.7776 30.5787 19.6443 29.4897 20.2943ZM22.6799 12.5954C23.3027 13.0915 23.4064 13.9945 22.9122 14.6176L17.1043 21.8398C16.8499 22.162 16.4699 22.3615 16.0589 22.3887H15.9718C15.5859 22.3909 15.2149 22.2402 14.9409 21.9698L12.0369 19.0809C11.4676 18.5145 11.4676 17.5962 12.0369 17.0298C12.6063 16.4634 13.5294 16.4634 14.0987 17.0298L15.8556 18.7776L20.6472 12.8265C21.1458 12.2069 22.0536 12.1037 22.6799 12.5954ZM27.9942 16.8422C28.212 16.9722 28.5169 17.16 28.7637 17.3333C28.5169 17.5067 28.2119 17.6944 28.0377 17.7233C27.0329 18.1523 26.2216 18.9337 25.7581 19.9189C25.5468 21.005 25.7431 22.1304 26.3099 23.0822L26.6148 23.8478H25.7726C24.6914 23.6128 23.5612 23.7771 22.5928 24.31C21.761 25.0571 21.2425 26.0886 21.1408 27.1989C21.1188 27.2864 21.0948 27.3863 21.0694 27.4916C21.0278 27.6644 20.9827 27.8517 20.9375 28.0222C20.7197 27.8633 20.4874 27.6611 20.3277 27.5167C19.5692 26.687 18.5409 26.15 17.4238 26C16.298 26.2054 15.2833 26.8049 14.5634 27.69C14.4036 27.8344 14.1713 28.0367 13.9535 28.1955C13.9317 28.113 13.9046 28.0266 13.8774 27.9398C13.8142 27.7379 13.7503 27.5338 13.7503 27.3722C13.6485 26.2619 13.1301 25.2305 12.2983 24.4833C11.3299 23.9504 10.1997 23.7861 9.11845 24.0211H8.2763L8.58121 23.2555C9.14796 22.3038 9.34427 21.1783 9.13297 20.0922C8.66951 19.107 7.8582 18.3256 6.85336 17.8967C6.63556 17.7667 6.33065 17.5789 6.08381 17.4055C6.33065 17.2322 6.63556 17.0444 6.85336 16.9144C7.8582 16.4855 8.66951 15.7041 9.13297 14.7189C9.34427 13.6328 9.14796 12.5073 8.58121 11.5555L8.18918 10.79H9.03133C10.1125 11.025 11.2427 10.8607 12.2112 10.3278C13.043 9.58062 13.5614 8.54918 13.6631 7.43888C13.6851 7.3514 13.7092 7.25151 13.7345 7.14626C13.7762 6.97342 13.8213 6.78611 13.8664 6.61554C14.0842 6.77443 14.3165 6.97665 14.4762 7.1211C15.2458 7.9241 16.2727 8.43492 17.3802 8.56554C18.4877 8.43492 19.5146 7.9241 20.2842 7.1211C20.4439 6.97665 20.6762 6.77443 20.894 6.61554C20.9158 6.69805 20.9429 6.78448 20.9701 6.87129C21.0333 7.07323 21.0973 7.27725 21.0973 7.43888C21.199 8.54918 21.7174 9.58062 22.5492 10.3278C23.5177 10.8607 24.6479 11.025 25.7291 10.79H26.5712L26.2663 11.5555C25.7171 12.4873 25.5214 13.5838 25.7145 14.6467C26.178 15.6319 26.9893 16.4133 27.9942 16.8422Z" fill="#939393"/>
</svg>
