<svg width="39" height="39" viewBox="0 0 39 39" fill="none" xmlns="http://www.w3.org/2000/svg">
<path fill-rule="evenodd" clip-rule="evenodd" d="M35.75 8.125V30.875C35.75 33.5674 33.5674 35.75 30.875 35.75H8.125C5.43261 35.75 3.25 33.5674 3.25 30.875V8.125C3.25 5.43261 5.43261 3.25 8.125 3.25H30.875C33.5674 3.25 35.75 5.43261 35.75 8.125ZM17.875 9.75H27.625C28.5224 9.75 29.25 10.4775 29.25 11.375C29.25 12.2725 28.5224 13 27.625 13H17.875C16.9775 13 16.25 12.2725 16.25 11.375C16.25 10.4775 16.9775 9.75 17.875 9.75ZM13 11.375C12.9974 11.1626 12.9532 10.9528 12.87 10.7575C12.7877 10.5605 12.6723 10.3792 12.5287 10.2212C12.3708 10.0777 12.1894 9.96225 11.9925 9.87995C11.3873 9.62548 10.6885 9.76012 10.2212 10.2212C10.0777 10.3792 9.96226 10.5605 9.87997 10.7575C9.7967 10.9528 9.75253 11.1626 9.74997 11.375C9.74747 11.8069 9.91704 12.222 10.2212 12.5287C10.5326 12.8256 10.9447 12.994 11.375 13C11.5881 13.0054 11.7996 12.9609 11.9925 12.87C12.1894 12.7877 12.3708 12.6722 12.5287 12.5287C12.8257 12.2173 12.994 11.8052 13 11.375ZM11.9925 18.0051C11.3873 17.7506 10.6885 17.8853 10.2212 18.3464C10.0707 18.4989 9.95442 18.6817 9.87997 18.8826C9.7967 19.078 9.75253 19.2878 9.74997 19.5001C9.74747 19.932 9.91704 20.3472 10.2212 20.6539C10.5326 20.9508 10.9447 21.1191 11.375 21.1251C11.5873 21.1225 11.7971 21.0784 11.9925 20.9951C12.1894 20.9128 12.3708 20.7974 12.5287 20.6539L12.7237 20.4101C12.7852 20.3195 12.8344 20.2212 12.87 20.1176C12.9281 20.0274 12.972 19.9287 13 19.8251C13.0079 19.7169 13.0079 19.6083 13 19.5001C12.994 19.0699 12.8257 18.6578 12.5287 18.3464C12.3708 18.2028 12.1894 18.0874 11.9925 18.0051ZM17.875 17.8752H27.625C28.5224 17.8752 29.25 18.6027 29.25 19.5002C29.25 20.3976 28.5224 21.1252 27.625 21.1252H17.875C16.9775 21.1252 16.25 20.3976 16.25 19.5002C16.25 18.6027 16.9775 17.8752 17.875 17.8752ZM12.5287 26.4715C12.3708 26.328 12.1894 26.2126 11.9925 26.1303C11.3873 25.8758 10.6885 26.0104 10.2212 26.4715C10.0733 26.6261 9.9573 26.8083 9.87996 27.0078C9.70612 27.4011 9.70612 27.8495 9.87996 28.2428C9.9573 28.4422 10.0733 28.6245 10.2212 28.779C10.5326 29.076 10.9447 29.2443 11.375 29.2503C11.5873 29.2477 11.7971 29.2035 11.9925 29.1203C12.1894 29.038 12.3708 28.9226 12.5287 28.779C12.6767 28.6245 12.7926 28.4422 12.87 28.2428C13.0438 27.8495 13.0438 27.4011 12.87 27.0078C12.7926 26.8083 12.6767 26.6261 12.5287 26.4715ZM17.875 26.0003H27.625C28.5224 26.0003 29.25 26.7279 29.25 27.6253C29.25 28.5228 28.5224 29.2503 27.625 29.2503H17.875C16.9775 29.2503 16.25 28.5228 16.25 27.6253C16.25 26.7279 16.9775 26.0003 17.875 26.0003ZM30.875 6.50032C31.7724 6.50032 32.5 7.22785 32.5 8.12532V30.8753C32.5 31.7728 31.7724 32.5003 30.875 32.5003H8.12496C7.2275 32.5003 6.49996 31.7728 6.49996 30.8753V8.12532C6.49996 7.22785 7.2275 6.50032 8.12496 6.50032H30.875Z" fill="white"/>
</svg>
