<svg width="40" height="40" viewBox="0 0 40 40" fill="none" xmlns="http://www.w3.org/2000/svg">
<path fill-rule="evenodd" clip-rule="evenodd" d="M21.9244 5.60076C20.8059 5.01698 19.2902 5.00797 18.1627 5.59025C13.8411 7.82216 9.92136 10.3812 6.4864 13.2196C5.95522 13.6585 5.57825 14.2963 5.58469 15.047C5.59109 15.7947 5.97573 16.424 6.50368 16.8557C9.9101 19.641 13.8331 22.2023 18.0756 24.4165C19.1941 25.0003 20.7098 25.0093 21.8372 24.4271C26.1589 22.1952 30.0786 19.6361 33.5136 16.7978C34.0448 16.3588 34.4217 15.721 34.4153 14.9703C34.4089 14.2226 34.0243 13.5933 33.4963 13.1616C30.0899 10.3764 26.1669 7.81499 21.9244 5.60076ZM19.3099 7.81151C19.7094 7.60522 20.3655 7.60717 20.7677 7.81706C24.8166 9.93025 28.5472 12.3614 31.7793 14.9874C28.5279 17.6556 24.8084 20.0789 20.6901 22.2058C20.2906 22.4121 19.6345 22.4101 19.2323 22.2002C15.1834 20.0871 11.4528 17.6559 8.22071 15.0299C11.4721 12.3617 15.1916 9.93841 19.3099 7.81151Z" fill="white"/>
<path d="M35.3284 21.1637C35.694 21.7493 35.5156 22.5204 34.93 22.886L24.7513 29.2408C23.3701 30.1032 21.6564 30.5019 19.9999 30.502C18.3433 30.5021 16.6295 30.1036 15.2481 29.2414L5.18089 22.9585C4.59523 22.593 4.41676 21.8219 4.78227 21.2363C5.14778 20.6506 5.91885 20.4721 6.50451 20.8376L16.5717 27.1206C17.4786 27.6866 18.7106 28.002 19.9997 28.002C21.2888 28.0019 22.5207 27.6863 23.4274 27.1202L33.6061 20.7654C34.1917 20.3998 34.9628 20.5781 35.3284 21.1637Z" fill="white"/>
<path d="M35.3283 27.4214C35.694 28.007 35.5157 28.7781 34.9302 29.1438L26.1153 34.6486C24.3526 35.7494 22.1476 36.2673 19.9998 36.2674C17.8519 36.2675 15.6468 35.7499 13.8839 34.6493L5.18076 29.2163C4.59515 28.8507 4.41677 28.0796 4.78235 27.494C5.14793 26.9084 5.91902 26.73 6.50463 27.0956L15.2077 32.5286C16.4961 33.3329 18.2193 33.7675 19.9996 33.7674C21.78 33.7673 23.503 33.3325 24.7911 32.5281L33.606 27.0233C34.1915 26.6576 34.9626 26.8359 35.3283 27.4214Z" fill="white"/>
</svg>
