<svg width="24" height="24" viewBox="0 0 24 24" fill="none" xmlns="http://www.w3.org/2000/svg">
<path fill-rule="evenodd" clip-rule="evenodd" d="M21 2H3C2.44772 2 2 2.44772 2 3V21C2 21.5523 2.44772 22 3 22H21C21.5523 22 22 21.5523 22 21V3C22 2.44772 21.5523 2 21 2ZM3 0C1.34315 0 0 1.34315 0 3V21C0 22.6569 1.34315 24 3 24H21C22.6569 24 24 22.6569 24 21V3C24 1.34315 22.6569 0 21 0H3Z" fill="#939393"/>
<path fill-rule="evenodd" clip-rule="evenodd" d="M17.7499 9.91666C17.7499 8.30584 16.4441 7 14.8333 7C13.2225 7 11.9166 8.30584 11.9166 9.91666C11.9166 11.5275 13.2225 12.8333 14.8333 12.8333C15.6068 12.8333 16.3487 12.526 16.8957 11.9791C17.4427 11.4321 17.7499 10.6902 17.7499 9.91666ZM14.25 12.8334H15.4167C18.3162 12.8334 20.6667 15.1839 20.6667 18.0834C20.6667 18.4055 20.4055 18.6667 20.0833 18.6667H9.58333C9.26117 18.6667 9 18.4055 9 18.0834C9 15.1839 11.3505 12.8334 14.25 12.8334ZM14.25 14C12.2198 13.9995 10.4975 15.4906 10.2075 17.5H19.4592C19.1691 15.4906 17.4469 13.9995 15.4167 14H14.25ZM13.0834 9.91662C13.0834 10.8831 13.8669 11.6666 14.8334 11.6666C15.2975 11.6666 15.7426 11.4822 16.0708 11.1541C16.399 10.8259 16.5834 10.3807 16.5834 9.91662C16.5834 8.95012 15.7999 8.16662 14.8334 8.16662C13.8669 8.16662 13.0834 8.95012 13.0834 9.91662Z" fill="#939393"/>
<path fill-rule="evenodd" clip-rule="evenodd" d="M8.8333 7C10.168 7 11.25 8.11929 11.25 9.5C11.25 10.163 10.9954 10.7989 10.5421 11.2678C10.0912 11.7343 9.48035 11.9974 8.84286 12H8.82364C7.4934 11.9946 6.41664 10.8774 6.41664 9.5C6.41664 8.11929 7.49861 7 8.8333 7ZM8.00001 17H4.48333C4.2164 17 4 16.7761 4 16.5C4 14.0147 5.94756 12 8.35 12H8.82364L8.8333 12L8.84286 12H9.31666C10.3526 12 11.304 12.3746 12.0511 13H9.3184C9.31781 13 9.31723 13 9.31664 13H8.34997C8.34939 13 8.3488 13 8.34821 13H8.00001V13.0185C6.4734 13.1811 5.22393 14.3985 5.00048 16H8.00001V17ZM8.83341 11C8.0326 11 7.38341 10.3284 7.38341 9.49999C7.38341 8.67157 8.0326 8 8.83341 8C9.63422 8 10.2834 8.67157 10.2834 9.49999C10.2834 9.89782 10.1306 10.2793 9.85872 10.5607C9.58679 10.842 9.21797 11 8.83341 11Z" fill="#939393"/>
</svg>
