<svg width="13" height="13" viewBox="0 0 13 13" fill="none" xmlns="http://www.w3.org/2000/svg">
<rect x="0.5" y="0.5" width="12" height="12" rx="1.5" fill="#F5F5F5" stroke="#A4A4A5"/>
<path d="M10.9596 3.60355L5.00125 10.0202C4.91487 10.1134 4.7937 10.1665 4.66667 10.1669V10.1669C4.54484 10.1676 4.42775 10.1198 4.34125 10.034L2.04959 7.7423C1.86986 7.56258 1.86986 7.27119 2.04959 7.09147C2.22931 6.91175 2.5207 6.91175 2.70042 7.09147L4.66667 9.04855L10.2904 2.98022C10.3983 2.8472 10.5713 2.78541 10.739 2.82002C10.9068 2.85463 11.0412 2.97986 11.0876 3.14471C11.134 3.30956 11.0846 3.48654 10.9596 3.60355Z" fill="#A4A4A5"/>
</svg>
