<svg width="40" height="40" viewBox="0 0 40 40" fill="none" xmlns="http://www.w3.org/2000/svg">
<path fill-rule="evenodd" clip-rule="evenodd" d="M20.2312 7.62442C21.9854 6.16259 24.6621 7.21887 24.9453 9.48468C25.8182 16.4676 25.8182 23.532 24.9453 30.5149C24.6621 32.7807 21.9854 33.837 20.2312 32.3751L12.9967 26.3464C12.9218 26.284 12.8274 26.2498 12.7299 26.2498H6.66667C5.05584 26.2498 3.75 24.9439 3.75 23.3331V16.6664C3.75 15.0556 5.05584 13.7498 6.66667 13.7498H12.7299C12.8274 13.7498 12.9218 13.7156 12.9967 13.6532L20.2312 7.62442ZM22.4646 9.79477C22.4266 9.49052 22.0672 9.34869 21.8317 9.54498L14.5971 15.5738C14.073 16.0106 13.4122 16.2498 12.7299 16.2498H6.66667C6.43655 16.2498 6.25 16.4363 6.25 16.6664V23.3331C6.25 23.5632 6.43655 23.7498 6.66667 23.7498H12.7299C13.4122 23.7498 14.073 23.989 14.5971 24.4258L21.8317 30.4546C22.0672 30.6509 22.4266 30.509 22.4646 30.2048C23.3118 23.4278 23.3118 16.5717 22.4646 9.79477Z" fill="white"/>
<path d="M33.1803 9.9094C33.8357 9.69262 34.5428 10.0482 34.7596 10.7037C35.7269 13.6286 36.25 16.7544 36.25 19.9998C36.25 23.2452 35.7269 26.371 34.7596 29.2959C34.5428 29.9514 33.8357 30.307 33.1803 30.0902C32.5248 29.8734 32.1692 29.1663 32.386 28.5109C33.2707 25.836 33.75 22.9751 33.75 19.9998C33.75 17.0244 33.2707 14.1636 32.386 11.4887C32.1692 10.8332 32.5248 10.1262 33.1803 9.9094Z" fill="white"/>
<path d="M30.0538 13.2459C29.8157 12.5979 29.0974 12.2656 28.4494 12.5037C27.8014 12.7418 27.4691 13.4601 27.7072 14.1081C28.3814 15.943 28.75 17.927 28.75 19.9998C28.75 21.7191 28.4964 23.377 28.0254 24.9392C27.9991 25.0263 27.9722 25.113 27.9446 25.1995C27.8703 25.4323 27.7911 25.663 27.7072 25.8914C27.4691 26.5394 27.8014 27.2578 28.4494 27.4958C29.0974 27.7339 29.8157 27.4016 30.0538 26.7536C30.1501 26.4915 30.241 26.2268 30.3263 25.9595C30.3579 25.8603 30.3888 25.7608 30.4189 25.6609C30.9597 23.8672 31.25 21.9662 31.25 19.9998C31.25 17.6285 30.8279 15.3529 30.0538 13.2459Z" fill="white"/>
</svg>
