<svg width="29" height="29" viewBox="0 0 29 29" fill="none" xmlns="http://www.w3.org/2000/svg">
<circle cx="13.1303" cy="15.1303" r="13.1303" fill="#F5F5F5"/>
<path d="M14.9326 15.2132C14.7583 14.9954 14.4405 14.9601 14.2227 15.1344L13.3599 15.8247V13.5087C13.3599 13.2298 13.1338 13.0037 12.8548 13.0037C12.5759 13.0037 12.3498 13.2298 12.3498 13.5087V15.8247L11.4869 15.1344C11.2691 14.9601 10.9513 14.9954 10.7771 15.2132C10.6029 15.431 10.6382 15.7488 10.856 15.9231L12.5375 17.2683C12.6242 17.3384 12.7346 17.3804 12.8548 17.3804C12.9761 17.3804 13.0873 17.3377 13.1744 17.2665L14.8537 15.9231C15.0715 15.7488 15.1068 15.431 14.9326 15.2132Z" fill="#969393"/>
<path fill-rule="evenodd" clip-rule="evenodd" d="M10.4714 11.6798C11.1062 10.699 12.2103 10.0488 13.467 10.0488C15.3616 10.0488 16.9111 11.5265 17.0259 13.3922C17.0637 13.3908 17.1017 13.3901 17.1398 13.3901C18.771 13.3901 20.0934 14.7124 20.0934 16.3436C20.0934 17.9748 18.771 19.2972 17.1398 19.2972L9.4881 19.2972C7.34978 19.2972 5.61633 17.5637 5.61633 15.4254C5.61633 13.2871 7.34978 11.5537 9.4881 11.5537C9.8274 11.5537 10.1571 11.5974 10.4714 11.6798ZM13.467 11.0589C12.4535 11.0589 11.5769 11.6487 11.1634 12.5061C11.0489 12.7435 10.7711 12.8529 10.5254 12.7573C10.2045 12.6324 9.85492 12.5637 9.4881 12.5637C7.9076 12.5637 6.62636 13.8449 6.62636 15.4254C6.62636 17.0059 7.9076 18.2872 9.4881 18.2872L17.1392 18.2872C18.2126 18.2872 19.0833 17.417 19.0833 16.3436C19.0833 15.2702 18.2132 14.4001 17.1398 14.4001C16.9651 14.4001 16.7966 14.423 16.6366 14.4657C16.4749 14.5089 16.3023 14.4692 16.1757 14.3596C16.0492 14.2499 15.9852 14.0848 16.0048 13.9185C16.0166 13.819 16.0227 13.7176 16.0227 13.6145C16.0227 12.2031 14.8784 11.0589 13.467 11.0589Z" fill="#969393"/>
<circle cx="23.5" cy="5.5" r="5.5" fill="#E1EDCC"/>
<path d="M21 5.98663L23.0722 8.05882L26.5 3.5" stroke="#67A700" stroke-width="0.828877" stroke-linecap="round"/>
</svg>
