<svg width="40" height="40" viewBox="0 0 40 40" fill="none" xmlns="http://www.w3.org/2000/svg">
<path fill-rule="evenodd" clip-rule="evenodd" d="M8.33331 3.33301H31.6666C34.4281 3.33301 36.6666 5.57158 36.6666 8.33301V31.6663C36.6666 34.4278 34.4281 36.6663 31.6666 36.6663H8.33331C5.57189 36.6663 3.33331 34.4278 3.33331 31.6663V8.33301C3.33331 5.57158 5.57189 3.33301 8.33331 3.33301ZM8.33331 33.3329H31.6666C32.3116 33.3281 32.8958 32.9516 33.1666 32.3663L15.25 18.9496L6.66665 28.9496V31.6663C6.66665 32.5867 7.41284 33.3329 8.33331 33.3329ZM33.3333 28.3333L23.3333 20.7666L26.8666 17.2333L33.3333 22.4666V28.3333ZM27.7 13.6996L33.3333 18.1996V8.33293C33.3333 7.41245 32.5871 6.66626 31.6666 6.66626H8.33331C7.41284 6.66626 6.66665 7.41245 6.66665 8.33293V23.8329L13.7333 15.5829C14.3047 14.9149 15.2967 14.8054 16 15.3329L20.4833 18.8163L25.4833 13.8163C26.0851 13.2194 27.0389 13.1692 27.7 13.6996Z" fill="white"/>
</svg>
