<svg width="27" height="27" viewBox="0 0 27 27" fill="none" xmlns="http://www.w3.org/2000/svg">
<circle cx="13.13" cy="13.13" r="13.13" fill="white"/>
<path d="M15.1579 13.4381C14.9837 13.2203 14.6659 13.185 14.4481 13.3592L13.5852 14.0495V11.7335C13.5852 11.4546 13.3591 11.2285 13.0802 11.2285C12.8013 11.2285 12.5752 11.4546 12.5752 11.7335V14.0495L11.7123 13.3592C11.4945 13.185 11.1767 13.2203 11.0025 13.4381C10.8282 13.6559 10.8635 13.9737 11.0813 14.1479L12.7629 15.4931C12.8496 15.5633 12.96 15.6053 13.0802 15.6053C13.2014 15.6053 13.3127 15.5625 13.3998 15.4913L15.079 14.1479C15.2968 13.9737 15.3321 13.6559 15.1579 13.4381Z" fill="#969393"/>
<path fill-rule="evenodd" clip-rule="evenodd" d="M10.6968 9.9046C11.3315 8.92384 12.4356 8.27367 13.6923 8.27367C15.587 8.27367 17.1365 9.75133 17.2512 11.6171C17.289 11.6156 17.327 11.6149 17.3652 11.6149C18.9964 11.6149 20.3187 12.9373 20.3187 14.5685C20.3187 16.1997 18.9964 17.522 17.3652 17.522L9.71345 17.522C7.57514 17.522 5.84169 15.7886 5.84169 13.6503C5.84169 11.5119 7.57514 9.77849 9.71345 9.77849C10.0528 9.77849 10.3824 9.82225 10.6968 9.9046ZM13.6923 9.28369C12.6789 9.28369 11.8023 9.87353 11.3888 10.7309C11.2743 10.9683 10.9964 11.0778 10.7508 10.9822C10.4298 10.8573 10.0803 10.7885 9.71345 10.7885C8.13296 10.7885 6.85172 12.0698 6.85172 13.6503C6.85172 15.2307 8.13296 16.512 9.71345 16.512L17.3645 16.512C18.4379 16.512 19.3087 15.6418 19.3087 14.5685C19.3087 13.4951 18.4385 12.6249 17.3652 12.6249C17.1905 12.6249 17.0219 12.6478 16.862 12.6906C16.7003 12.7338 16.5276 12.694 16.4011 12.5844C16.2745 12.4748 16.2105 12.3096 16.2302 12.1433C16.2419 12.0438 16.248 11.9424 16.248 11.8394C16.248 10.4279 15.1038 9.28369 13.6923 9.28369Z" fill="#969393"/>
</svg>
