<svg width="36" height="36" viewBox="0 0 36 36" fill="none" xmlns="http://www.w3.org/2000/svg">
<path fill-rule="evenodd" clip-rule="evenodd" d="M10.2 3.87L29.535 13.665C32.4 15.12 32.82 17.1 32.82 18.12C32.82 19.14 32.4 21 29.535 22.5L10.2 32.265C9.38479 32.6931 8.48064 32.9243 7.56 32.94C6.77849 32.9512 6.00945 32.7434 5.34 32.34C3.87082 31.331 3.04831 29.6174 3.18 27.84V8.37C3.04203 6.59139 3.86597 4.87485 5.34 3.87C6.84693 3.01404 8.69307 3.01404 10.2 3.87ZM8.84999 29.5504L28.17 19.7554C29.19 19.2304 29.82 18.5704 29.82 18.0454C29.82 17.5204 29.19 16.8604 28.17 16.3504L8.78999 6.55541C8.39382 6.33675 7.95213 6.21348 7.49999 6.19541C7.28961 6.20122 7.08375 6.25783 6.89999 6.36041C6.3594 6.83062 6.08927 7.5397 6.17999 8.25041V27.8404C6.08927 28.5511 6.3594 29.2602 6.89999 29.7304C7.53906 30.0011 8.27126 29.9335 8.84999 29.5504Z" fill="white"/>
</svg>
