<svg width="40" height="40" viewBox="0 0 40 40" fill="none" xmlns="http://www.w3.org/2000/svg">
<path fill-rule="evenodd" clip-rule="evenodd" d="M33.9355 30.9658C33.2595 31.6167 32.3631 32.0354 31.3754 32.106L28.6456 32.3013C22.8892 32.7132 17.1108 32.7132 11.3543 32.3013L8.831 32.1208C6.83762 31.9782 5.19344 30.5046 4.83424 28.5386C4.10646 24.5555 3.98187 20.4855 4.46464 16.4653L4.91878 12.6834C5.18829 10.439 7.0923 8.75 9.35277 8.75H13.172C15.035 8.75 16.5871 10.0808 16.9296 11.8435L30.787 11.8435C32.9643 11.8435 34.8188 13.4256 35.162 15.5756L35.2688 16.2446C35.2912 16.3852 35.3128 16.5259 35.3336 16.6667H35.8936C38.3476 16.6667 40.0348 19.133 39.1454 21.4202L37.063 26.7749C36.4163 28.4377 35.3315 29.8835 33.9355 30.9658ZM32.6932 15.9696L32.8 16.6387C32.8015 16.648 32.803 16.6573 32.8045 16.6667H17.284C15.3912 16.6667 13.6931 17.8302 13.0098 19.5954L9.12336 29.6353L9.0094 29.6272C8.15361 29.5659 7.44774 28.9333 7.29352 28.0893C6.6108 24.3527 6.49392 20.5347 6.9468 16.7633L7.40095 12.9815C7.51959 11.9935 8.35772 11.25 9.35277 11.25H13.172C13.9055 11.25 14.5 11.8445 14.5 12.5779C14.5 13.5531 15.2905 14.3435 16.2656 14.3435H30.787C31.7357 14.3435 32.5437 15.0328 32.6932 15.9696ZM11.7319 29.8218C17.3037 30.211 22.896 30.2063 28.4672 29.8077L31.197 29.6124L31.5213 29.5821L31.519 29.578C32.9866 28.7499 34.1222 27.4393 34.733 25.8688L36.8154 20.5141C37.0675 19.8658 36.5892 19.1667 35.8936 19.1667H17.284C16.4237 19.1667 15.6518 19.6956 15.3412 20.4979L11.7319 29.8218Z" fill="white"/>
</svg>
