<svg width="30" height="30" viewBox="0 0 30 30" fill="none" xmlns="http://www.w3.org/2000/svg">
<circle cx="15.1303" cy="15.1303" r="13.8803" fill="white" stroke="url(#paint0_linear_762_15130)" stroke-width="1.5"/>
<path d="M16.9326 15.2132C16.7583 14.9954 16.4405 14.9601 16.2227 15.1344L15.3599 15.8247V13.5087C15.3599 13.2298 15.1338 13.0037 14.8548 13.0037C14.5759 13.0037 14.3498 13.2298 14.3498 13.5087V15.8247L13.4869 15.1344C13.2691 14.9601 12.9513 14.9954 12.7771 15.2132C12.6029 15.431 12.6382 15.7488 12.856 15.9231L14.5375 17.2683C14.6242 17.3384 14.7346 17.3804 14.8548 17.3804C14.9761 17.3804 15.0873 17.3377 15.1744 17.2665L16.8537 15.9231C17.0715 15.7488 17.1068 15.431 16.9326 15.2132Z" fill="#969393"/>
<path fill-rule="evenodd" clip-rule="evenodd" d="M12.4714 11.6798C13.1062 10.699 14.2103 10.0488 15.467 10.0488C17.3616 10.0488 18.9111 11.5265 19.0259 13.3922C19.0637 13.3908 19.1017 13.3901 19.1398 13.3901C20.771 13.3901 22.0934 14.7124 22.0934 16.3436C22.0934 17.9748 20.771 19.2972 19.1398 19.2972H11.4881C9.34978 19.2972 7.61633 17.5637 7.61633 15.4254C7.61633 13.2871 9.34978 11.5537 11.4881 11.5537C11.8274 11.5537 12.1571 11.5974 12.4714 11.6798ZM15.467 11.0589C14.4535 11.0589 13.5769 11.6487 13.1634 12.5061C13.0489 12.7435 12.7711 12.8529 12.5254 12.7573C12.2045 12.6324 11.8549 12.5637 11.4881 12.5637C9.9076 12.5637 8.62636 13.8449 8.62636 15.4254C8.62636 17.0059 9.9076 18.2872 11.4881 18.2872L19.1392 18.2872C20.2126 18.2872 21.0833 17.417 21.0833 16.3436C21.0833 15.2702 20.2132 14.4001 19.1398 14.4001C18.9651 14.4001 18.7966 14.423 18.6366 14.4657C18.4749 14.5089 18.3023 14.4692 18.1757 14.3596C18.0492 14.2499 17.9852 14.0848 18.0048 13.9185C18.0166 13.819 18.0227 13.7176 18.0227 13.6145C18.0227 12.2031 16.8784 11.0589 15.467 11.0589Z" fill="#969393"/>
<defs>
<linearGradient id="paint0_linear_762_15130" x1="16.5" y1="0.5" x2="15.5" y2="0.5" gradientUnits="userSpaceOnUse">
<stop stop-color="#67A700"/>
<stop offset="0.0001"/>
<stop offset="0.09375" stop-opacity="0"/>
</linearGradient>
</defs>
</svg>
