<svg width="29" height="29" viewBox="0 0 29 29" fill="none" xmlns="http://www.w3.org/2000/svg">
<circle cx="14.1869" cy="14.1869" r="14.1869" fill="#C3C3C3"/>
<path d="M12.7447 6.87842C12.446 6.87842 12.2038 7.12056 12.2038 7.41927V7.96012H9.13899C8.84029 7.96012 8.59814 8.20227 8.59814 8.50097C8.59814 8.79967 8.84029 9.04182 9.13899 9.04182H19.2349C19.5336 9.04182 19.7757 8.79967 19.7757 8.50097C19.7757 8.20227 19.5336 7.96012 19.2349 7.96012H16.17V7.41927C16.17 7.12056 15.9279 6.87842 15.6292 6.87842H12.7447Z" fill="black"/>
<path d="M14.9518 16.0729L16.0116 17.1327C16.2229 17.3439 16.2229 17.6864 16.0116 17.8976C15.8004 18.1088 15.458 18.1088 15.2468 17.8976L14.1869 16.8377L13.1271 17.8976C12.9159 18.1088 12.5734 18.1088 12.3622 17.8976C12.151 17.6864 12.151 17.3439 12.3622 17.1327L13.4221 16.0729L12.3622 15.013C12.151 14.8018 12.151 14.4594 12.3622 14.2482C12.5734 14.0369 12.9159 14.0369 13.1271 14.2482L14.1869 15.308L15.2468 14.2482C15.458 14.037 15.8004 14.037 16.0116 14.2482C16.2229 14.4594 16.2229 14.8018 16.0116 15.013L14.9518 16.0729Z" fill="black"/>
<path fill-rule="evenodd" clip-rule="evenodd" d="M9.85394 10.9652C9.88438 10.6913 10.1159 10.4841 10.3915 10.4841H17.9824C18.258 10.4841 18.4895 10.6913 18.5199 10.9652L18.6642 12.2642C18.9259 14.619 18.9259 16.9954 18.6642 19.3502L18.65 19.478C18.5462 20.4127 17.8218 21.1581 16.8904 21.2884C15.0968 21.5395 13.277 21.5395 11.4835 21.2884C10.5521 21.1581 9.82767 20.4127 9.72382 19.478L9.70961 19.3502C9.44797 16.9954 9.44797 14.619 9.70961 12.2642L9.85394 10.9652ZM10.8756 11.5658L10.7847 12.3837C10.5319 14.659 10.5319 16.9554 10.7847 19.2307L10.7989 19.3586C10.8482 19.8019 11.1917 20.1554 11.6334 20.2172C13.3275 20.4544 15.0464 20.4544 16.7404 20.2172C17.1821 20.1554 17.5257 19.8019 17.5749 19.3586L17.5892 19.2307C17.842 16.9554 17.842 14.659 17.5892 12.3837L17.4983 11.5658H10.8756Z" fill="black"/>
</svg>
