<svg width="29" height="29" viewBox="0 0 29 29" fill="none" xmlns="http://www.w3.org/2000/svg">
<circle cx="14.3198" cy="14.185" r="14.185" fill="#EAEAEA"/>
<path fill-rule="evenodd" clip-rule="evenodd" d="M9.8039 6.99902H19.6348C20.7983 6.99902 21.7415 7.94219 21.7415 9.10565V10.5101C21.7415 10.8979 21.4271 11.2123 21.0393 11.2123H20.3371V18.9366C20.3371 20.1001 19.3939 21.0432 18.2304 21.0432H11.2083C10.0449 21.0432 9.10169 20.1001 9.10169 18.9366V11.2123H8.39948C8.01166 11.2123 7.69727 10.8979 7.69727 10.5101V9.10565C7.69727 7.94219 8.64044 6.99902 9.8039 6.99902ZM18.2304 19.6382C18.6182 19.6382 18.9326 19.3238 18.9326 18.936V11.2117H10.5061V18.936C10.5061 19.3238 10.8205 19.6382 11.2083 19.6382H18.2304ZM20.3371 9.80765H9.10171V9.10544C9.10171 8.71762 9.4161 8.40323 9.80392 8.40323H19.6349C20.0227 8.40323 20.3371 8.71762 20.3371 9.10544V9.80765ZM11.9105 13.3191V17.5324C11.9105 17.9202 12.2249 18.2346 12.6127 18.2346C13.0006 18.2346 13.3149 17.9202 13.3149 17.5324V13.3191C13.3149 12.9313 13.0006 12.6169 12.6127 12.6169C12.2249 12.6169 11.9105 12.9313 11.9105 13.3191ZM16.1238 17.5324V13.3191C16.1238 12.9313 16.4382 12.6169 16.826 12.6169C17.2138 12.6169 17.5282 12.9313 17.5282 13.3191V17.5324C17.5282 17.9202 17.2138 18.2346 16.826 18.2346C16.4382 18.2346 16.1238 17.9202 16.1238 17.5324ZM14.0172 13.3191V17.5324C14.0172 17.9202 14.3316 18.2346 14.7194 18.2346C15.1072 18.2346 15.4216 17.9202 15.4216 17.5324V13.3191C15.4216 12.9313 15.1072 12.6169 14.7194 12.6169C14.3316 12.6169 14.0172 12.9313 14.0172 13.3191Z" fill="black"/>
</svg>
