<svg width="21" height="21" viewBox="0 0 21 21" fill="none" xmlns="http://www.w3.org/2000/svg">
<path fill-rule="evenodd" clip-rule="evenodd" d="M3.63258 0.868164H17.4936C19.134 0.868164 20.4638 2.19798 20.4638 3.83839V5.81854C20.4638 6.36534 20.0206 6.80861 19.4738 6.80861H18.4837V17.6994C18.4837 19.3398 17.1539 20.6696 15.5135 20.6696H5.61272C3.97232 20.6696 2.6425 19.3398 2.6425 17.6994V6.80861H1.65243C1.10562 6.80861 0.662354 6.36534 0.662354 5.81854V3.83839C0.662354 2.19798 1.99217 0.868164 3.63258 0.868164ZM15.5135 18.6886C16.0603 18.6886 16.5036 18.2453 16.5036 17.6985V6.80772H4.62266V17.6985C4.62266 18.2453 5.06593 18.6886 5.61273 18.6886H15.5135ZM18.4837 4.82816H2.64253V3.83809C2.64253 3.29129 3.0858 2.84801 3.6326 2.84801H17.4936C18.0404 2.84801 18.4837 3.29129 18.4837 3.83809V4.82816ZM6.60279 9.77913V15.7196C6.60279 16.2664 7.04606 16.7097 7.59286 16.7097C8.13967 16.7097 8.58294 16.2664 8.58294 15.7196V9.77913C8.58294 9.23233 8.13967 8.78906 7.59286 8.78906C7.04606 8.78906 6.60279 9.23233 6.60279 9.77913ZM12.5433 15.7196V9.77913C12.5433 9.23233 12.9865 8.78906 13.5333 8.78906C14.0802 8.78906 14.5234 9.23233 14.5234 9.77913V15.7196C14.5234 16.2664 14.0802 16.7097 13.5333 16.7097C12.9865 16.7097 12.5433 16.2664 12.5433 15.7196ZM9.57303 9.77913V15.7196C9.57303 16.2664 10.0163 16.7097 10.5631 16.7097C11.1099 16.7097 11.5532 16.2664 11.5532 15.7196V9.77913C11.5532 9.23233 11.1099 8.78906 10.5631 8.78906C10.0163 8.78906 9.57303 9.23233 9.57303 9.77913Z" fill="black"/>
</svg>
