<svg width="27" height="27" viewBox="0 0 27 27" fill="none" xmlns="http://www.w3.org/2000/svg">
<circle cx="13.1303" cy="13.1303" r="13.1303" fill="#C3C3C3"/>
<path d="M14.9327 13.2132C14.7584 12.9954 14.4406 12.9601 14.2228 13.1344L13.36 13.8247V11.5087C13.36 11.2298 13.1339 11.0037 12.855 11.0037C12.5761 11.0037 12.35 11.2298 12.35 11.5087V13.8247L11.4871 13.1344C11.2693 12.9601 10.9515 12.9954 10.7772 13.2132C10.603 13.431 10.6383 13.7488 10.8561 13.9231L12.5377 15.2683C12.6244 15.3384 12.7348 15.3804 12.855 15.3804C12.9762 15.3804 13.0875 15.3377 13.1745 15.2665L14.8538 13.9231C15.0716 13.7488 15.1069 13.431 14.9327 13.2132Z" fill="black"/>
<path fill-rule="evenodd" clip-rule="evenodd" d="M10.4716 9.67976C11.1063 8.69901 12.2104 8.04883 13.4671 8.04883C15.3617 8.04883 16.9112 9.5265 17.026 11.3922C17.0638 11.3908 17.1018 11.3901 17.1399 11.3901C18.7711 11.3901 20.0935 12.7124 20.0935 14.3436C20.0935 15.9748 18.7711 17.2972 17.1399 17.2972L9.48822 17.2972C7.3499 17.2972 5.61646 15.5637 5.61646 13.4254C5.61646 11.2871 7.3499 9.55365 9.48822 9.55365C9.82753 9.55365 10.1572 9.59742 10.4716 9.67976ZM13.4671 9.05885C12.4537 9.05885 11.577 9.64869 11.1636 10.5061C11.0491 10.7435 10.7712 10.8529 10.5255 10.7573C10.2046 10.6324 9.85504 10.5637 9.48822 10.5637C7.90772 10.5637 6.62648 11.8449 6.62648 13.4254C6.62648 15.0059 7.90772 16.2872 9.48822 16.2872L17.1393 16.2872C18.2127 16.2872 19.0835 15.417 19.0835 14.3436C19.0835 13.2702 18.2133 12.4001 17.1399 12.4001C16.9652 12.4001 16.7967 12.423 16.6368 12.4657C16.475 12.5089 16.3024 12.4692 16.1758 12.3596C16.0493 12.2499 15.9853 12.0848 16.0049 11.9185C16.0167 11.819 16.0228 11.7176 16.0228 11.6145C16.0228 10.2031 14.8786 9.05885 13.4671 9.05885Z" fill="black"/>
</svg>
