<svg width="30" height="29" viewBox="0 0 30 29" fill="none" xmlns="http://www.w3.org/2000/svg">
<circle cx="14.9346" cy="14.1869" r="14.1869" fill="#F07C50"/>
<path d="M13.4923 6.87842C13.1936 6.87842 12.9514 7.12056 12.9514 7.41927V7.96012H9.88661C9.58791 7.96012 9.34576 8.20227 9.34576 8.50097C9.34576 8.79967 9.58791 9.04182 9.88661 9.04182H19.9825C20.2812 9.04182 20.5233 8.79967 20.5233 8.50097C20.5233 8.20227 20.2812 7.96012 19.9825 7.96012H16.9177V7.41927C16.9177 7.12056 16.6755 6.87842 16.3768 6.87842H13.4923Z" fill="black"/>
<path d="M15.6994 16.0729L16.7593 17.1327C16.9705 17.3439 16.9705 17.6864 16.7593 17.8976C16.548 18.1088 16.2056 18.1088 15.9944 17.8976L14.9346 16.8377L13.8747 17.8976C13.6635 18.1088 13.3211 18.1088 13.1098 17.8976C12.8986 17.6864 12.8986 17.3439 13.1098 17.1327L14.1697 16.0729L13.1098 15.013C12.8986 14.8018 12.8986 14.4594 13.1098 14.2482C13.3211 14.0369 13.6635 14.0369 13.8747 14.2482L14.9346 15.308L15.9944 14.2482C16.2056 14.037 16.548 14.037 16.7593 14.2482C16.9705 14.4594 16.9705 14.8018 16.7593 15.013L15.6994 16.0729Z" fill="black"/>
<path fill-rule="evenodd" clip-rule="evenodd" d="M10.6016 10.9652C10.632 10.6913 10.8635 10.4841 11.1391 10.4841H18.73C19.0056 10.4841 19.2371 10.6913 19.2675 10.9652L19.4119 12.2642C19.6735 14.619 19.6735 16.9954 19.4119 19.3502L19.3977 19.478C19.2938 20.4127 18.5694 21.1581 17.638 21.2884C15.8444 21.5395 14.0246 21.5395 12.2311 21.2884C11.2997 21.1581 10.5753 20.4127 10.4714 19.478L10.4572 19.3502C10.1956 16.9954 10.1956 14.619 10.4572 12.2642L10.6016 10.9652ZM11.6232 11.5658L11.5323 12.3837C11.2795 14.659 11.2795 16.9554 11.5323 19.2307L11.5465 19.3586C11.5958 19.8019 11.9393 20.1554 12.3811 20.2172C14.0751 20.4544 15.794 20.4544 17.488 20.2172C17.9298 20.1554 18.2733 19.8019 18.3226 19.3586L18.3368 19.2307C18.5896 16.9554 18.5896 14.659 18.3368 12.3837L18.2459 11.5658H11.6232Z" fill="black"/>
</svg>
