<svg width="46" height="34" viewBox="0 0 46 34" fill="none" xmlns="http://www.w3.org/2000/svg">
<path fill-rule="evenodd" clip-rule="evenodd" d="M6.9 0H39.1C42.9108 0 46 2.23858 46 5V28.3333C46 31.0948 42.9108 33.3333 39.1 33.3333H6.9C3.08924 33.3333 0 31.0948 0 28.3333V5C0 2.23858 3.08924 0 6.9 0ZM6.89997 29.9995H39.1C39.99 29.9947 40.7962 29.6182 41.17 29.0329L16.445 15.6162L4.59997 25.6162V28.3329C4.59997 29.2534 5.62972 29.9995 6.89997 29.9995ZM41.4 25.0004L27.6 17.4337L32.476 13.9004L41.4 19.1337V25.0004ZM33.626 10.3663L41.4 14.8663V4.99967C41.4 4.0792 40.3702 3.33301 39.1 3.33301H6.89997C5.62972 3.33301 4.59997 4.0792 4.59997 4.99967V20.4997L14.352 12.2497C15.1405 11.5816 16.5095 11.4722 17.48 11.9997L23.667 15.483L30.567 10.483C31.3974 9.88616 32.7137 9.83596 33.626 10.3663Z" fill="#F07C50"/>
</svg>
