<svg width="29" height="29" viewBox="0 0 29 29" fill="none" xmlns="http://www.w3.org/2000/svg">
<circle cx="14.1869" cy="14.1869" r="14.1869" fill="#252525"/>
<path d="M16.1342 14.2758C15.9459 14.0405 15.6026 14.0023 15.3672 14.1906L14.4349 14.9364V12.434C14.4349 12.1327 14.1906 11.8884 13.8893 11.8884C13.5879 11.8884 13.3436 12.1327 13.3436 12.434V14.9364L12.4113 14.1906C12.176 14.0023 11.8326 14.0405 11.6444 14.2758C11.4561 14.5111 11.4943 14.8545 11.7296 15.0427L13.5464 16.4962C13.6401 16.572 13.7594 16.6174 13.8893 16.6174C14.0203 16.6174 14.1405 16.5712 14.2346 16.4943L16.049 15.0427C16.2843 14.8545 16.3224 14.5111 16.1342 14.2758Z" fill="white"/>
<path fill-rule="evenodd" clip-rule="evenodd" d="M11.3141 10.458C11.9999 9.3983 13.1928 8.6958 14.5507 8.6958C16.5978 8.6958 18.2719 10.2924 18.3959 12.3082C18.4368 12.3067 18.4778 12.3059 18.5191 12.3059C20.2815 12.3059 21.7103 13.7347 21.7103 15.4971C21.7103 17.2596 20.2815 18.6884 18.5191 18.6884H10.2516C7.94124 18.6884 6.0683 16.8154 6.0683 14.505C6.0683 12.1947 7.94124 10.3217 10.2516 10.3217C10.6182 10.3217 10.9744 10.369 11.3141 10.458ZM14.5507 9.7871C13.4557 9.7871 12.5085 10.4244 12.0618 11.3508C11.9381 11.6073 11.6378 11.7255 11.3724 11.6223C11.0256 11.4873 10.648 11.413 10.2516 11.413C8.54394 11.413 7.1596 12.7974 7.1596 14.505C7.1596 16.2127 8.54394 17.5971 10.2516 17.5971L18.5184 17.5971C19.6781 17.5971 20.619 16.6569 20.619 15.4971C20.619 14.3374 19.6788 13.3972 18.5191 13.3972C18.3303 13.3972 18.1482 13.422 17.9754 13.4681C17.8006 13.5148 17.6141 13.4718 17.4774 13.3534C17.3406 13.235 17.2715 13.0565 17.2927 12.8769C17.3054 12.7694 17.312 12.6598 17.312 12.5484C17.312 11.0234 16.0757 9.7871 14.5507 9.7871Z" fill="white"/>
</svg>
