<svg width="16" height="17" viewBox="0 0 16 17" fill="none" xmlns="http://www.w3.org/2000/svg">
<path d="M14.875 2.875H1.125C0.95924 2.875 0.800269 2.94085 0.683058 3.05806C0.565848 3.17527 0.5 3.33424 0.5 3.5C0.5 3.66576 0.565848 3.82473 0.683058 3.94194C0.800269 4.05915 0.95924 4.125 1.125 4.125H1.75V15.375C1.75 15.7065 1.8817 16.0245 2.11612 16.2589C2.35054 16.4933 2.66848 16.625 3 16.625H13C13.3315 16.625 13.6495 16.4933 13.8839 16.2589C14.1183 16.0245 14.25 15.7065 14.25 15.375V4.125H14.875C15.0408 4.125 15.1997 4.05915 15.3169 3.94194C15.4342 3.82473 15.5 3.66576 15.5 3.5C15.5 3.33424 15.4342 3.17527 15.3169 3.05806C15.1997 2.94085 15.0408 2.875 14.875 2.875ZM13 15.375H3V4.125H13V15.375ZM4.25 1C4.25 0.83424 4.31585 0.675268 4.43306 0.558058C4.55027 0.440848 4.70924 0.375 4.875 0.375H11.125C11.2908 0.375 11.4497 0.440848 11.5669 0.558058C11.6842 0.675268 11.75 0.83424 11.75 1C11.75 1.16576 11.6842 1.32473 11.5669 1.44194C11.4497 1.55915 11.2908 1.625 11.125 1.625H4.875C4.70924 1.625 4.55027 1.55915 4.43306 1.44194C4.31585 1.32473 4.25 1.16576 4.25 1Z" fill="#1C1C1C"/>
</svg>
