<svg width="29" height="19" viewBox="0 0 29 19" fill="none" xmlns="http://www.w3.org/2000/svg">
<path d="M18.4015 10.2876C18.0661 9.86842 17.4544 9.80045 17.0352 10.1358L15.3743 11.4646V7.00652C15.3743 6.46964 14.939 6.03442 14.4022 6.03442C13.8653 6.03442 13.4301 6.46964 13.4301 7.00652V11.4646L11.7691 10.1358C11.3498 9.80045 10.7381 9.86842 10.4027 10.2876C10.0673 10.7069 10.1353 11.3186 10.5545 11.654L13.7914 14.2434C13.9583 14.3784 14.1708 14.4593 14.4022 14.4593C14.6355 14.4593 14.8497 14.377 15.0173 14.24L18.2497 11.654C18.6689 11.3186 18.7369 10.7069 18.4015 10.2876Z" fill="white"/>
<path fill-rule="evenodd" clip-rule="evenodd" d="M9.81435 3.48605C11.0361 1.59821 13.1614 0.34668 15.5805 0.34668C19.2274 0.34668 22.21 3.19104 22.4309 6.78238C22.5037 6.77961 22.5768 6.77821 22.6503 6.77821C25.7902 6.77821 28.3356 9.32361 28.3356 12.4635C28.3356 15.6034 25.7902 18.1488 22.6503 18.1488L7.9215 18.1488C3.80546 18.1488 0.46875 14.8121 0.46875 10.6961C0.46875 6.58002 3.80546 3.24331 7.9215 3.24331C8.57464 3.24331 9.20918 3.32755 9.81435 3.48605ZM15.5805 2.29088C13.6297 2.29088 11.9422 3.42626 11.1464 5.0766C10.9259 5.53363 10.3911 5.74427 9.91824 5.56027C9.30045 5.31987 8.62759 5.18751 7.9215 5.18751C4.87921 5.18751 2.41295 7.65377 2.41295 10.6961C2.41295 13.7384 4.87921 16.2046 7.9215 16.2046L22.6491 16.2046C24.7152 16.2046 26.3914 14.5297 26.3914 12.4635C26.3914 10.3974 24.7164 8.72241 22.6503 8.72241C22.314 8.72241 21.9896 8.76653 21.6817 8.84875C21.3704 8.9319 21.0381 8.85536 20.7945 8.64438C20.5509 8.43341 20.4277 8.11543 20.4655 7.7954C20.4882 7.60389 20.4999 7.40866 20.4999 7.21028C20.4999 4.49337 18.2974 2.29088 15.5805 2.29088Z" fill="white"/>
</svg>
