<svg width="18" height="18" viewBox="0 0 18 18" fill="none" xmlns="http://www.w3.org/2000/svg">
<path fill-rule="evenodd" clip-rule="evenodd" d="M6.78338 14.7496L16.5584 4.9746C17.2272 4.35137 17.5025 3.41275 17.2763 2.52697C17.0501 1.6412 16.3585 0.94953 15.4727 0.723318C14.5869 0.497105 13.6483 0.772425 13.025 1.44127L3.22504 11.2413C3.16236 11.3057 3.10906 11.3786 3.06671 11.4579L0.750043 16.1329C0.623358 16.3915 0.639112 16.6971 0.791708 16.9413C0.944305 17.1854 1.21212 17.3335 1.50004 17.3329C1.63754 17.3297 1.77209 17.2925 1.89171 17.2246L6.56671 14.9079C6.646 14.8656 6.71894 14.8123 6.78338 14.7496ZM16.5 17.3329C16.9602 17.3329 17.3333 16.9598 17.3333 16.4996C17.3333 16.0393 16.9602 15.6662 16.5 15.6662H9C8.53976 15.6662 8.16667 16.0393 8.16667 16.4996C8.16667 16.9598 8.53976 17.3329 9 17.3329H16.5ZM12.6 6.57462L11.425 5.39962L4.52503 12.3329L3.3667 14.6663L5.6667 13.4746L12.6 6.57462ZM14.8042 2.33183C15.0326 2.33183 15.2511 2.42559 15.4084 2.5912C15.5708 2.75193 15.6601 2.9723 15.6553 3.20074C15.6506 3.42918 15.5523 3.64566 15.3834 3.79954L13.7751 5.39954L12.6001 4.22454L14.2001 2.5912C14.3574 2.42559 14.5758 2.33183 14.8042 2.33183Z" fill="#231F20"/>
</svg>
