<svg width="16" height="16" viewBox="0 0 16 16" fill="none" xmlns="http://www.w3.org/2000/svg">
<path fill-rule="evenodd" clip-rule="evenodd" d="M15.6604 2.33517V12.9182C15.6604 14.1707 14.6451 15.186 13.3926 15.186H2.80963C1.55716 15.186 0.54184 14.1707 0.54184 12.9182V2.33517C0.54184 1.08271 1.55716 0.0673828 2.80963 0.0673828H13.3926C14.6451 0.0673828 15.6604 1.08271 15.6604 2.33517ZM7.34521 3.09124H11.8808C12.2983 3.09124 12.6367 3.42969 12.6367 3.84717C12.6367 4.26466 12.2983 4.6031 11.8808 4.6031H7.34521C6.92772 4.6031 6.58928 4.26466 6.58928 3.84717C6.58928 3.42969 6.92772 3.09124 7.34521 3.09124ZM5.07741 3.84715C5.07621 3.74837 5.05567 3.65078 5.01693 3.5599C4.97865 3.46829 4.92496 3.38392 4.85819 3.31044C4.78471 3.24367 4.70034 3.18998 4.60873 3.1517C4.32722 3.03332 4.00214 3.09595 3.78477 3.31044C3.71799 3.38392 3.6643 3.46829 3.62602 3.5599C3.58729 3.65078 3.56674 3.74837 3.56555 3.84715C3.56439 4.04808 3.64327 4.24121 3.78477 4.38386C3.92963 4.522 4.12133 4.6003 4.32148 4.60308C4.42064 4.60564 4.51902 4.58493 4.60873 4.54261C4.70034 4.50433 4.78471 4.45064 4.85819 4.38386C4.99632 4.239 5.07462 4.0473 5.07741 3.84715ZM4.60873 6.9312C4.32722 6.81282 4.00214 6.87545 3.78477 7.08994C3.71477 7.1609 3.66065 7.24594 3.62602 7.3394C3.58729 7.43028 3.56674 7.52787 3.56555 7.62666C3.56439 7.82758 3.64327 8.02071 3.78477 8.16337C3.92963 8.3015 4.12133 8.3798 4.32148 8.38259C4.42026 8.38139 4.51785 8.36085 4.60873 8.32211C4.70034 8.28383 4.78471 8.23014 4.85819 8.16337L4.9489 8.04998C4.97751 8.00784 5.00039 7.96208 5.01693 7.91391C5.04399 7.87195 5.06439 7.82605 5.07741 7.77784C5.08112 7.72751 5.08112 7.67698 5.07741 7.62666C5.07462 7.42651 4.99632 7.23481 4.85819 7.08994C4.78471 7.02317 4.70034 6.96948 4.60873 6.9312ZM7.34521 6.87075H11.8808C12.2983 6.87075 12.6367 7.20919 12.6367 7.62668C12.6367 8.04417 12.2983 8.38261 11.8808 8.38261H7.34521C6.92772 8.38261 6.58928 8.04417 6.58928 7.62668C6.58928 7.20919 6.92772 6.87075 7.34521 6.87075ZM4.8582 10.8694C4.78472 10.8027 4.70035 10.749 4.60874 10.7107C4.32724 10.5923 4.00215 10.655 3.78478 10.8694C3.71596 10.9413 3.66201 11.0261 3.62603 11.1189C3.54517 11.3019 3.54517 11.5104 3.62603 11.6934C3.66201 11.7862 3.71596 11.871 3.78478 11.9429C3.92964 12.081 4.12134 12.1593 4.32149 12.1621C4.42027 12.1609 4.51786 12.1403 4.60874 12.1016C4.70035 12.0633 4.78472 12.0096 4.8582 11.9429C4.92702 11.871 4.98097 11.7862 5.01694 11.6934C5.09781 11.5104 5.09781 11.3019 5.01694 11.1189C4.98097 11.0261 4.92702 10.9413 4.8582 10.8694ZM7.34521 10.6502H11.8808C12.2983 10.6502 12.6367 10.9887 12.6367 11.4062C12.6367 11.8237 12.2983 12.1621 11.8808 12.1621H7.34521C6.92772 12.1621 6.58928 11.8237 6.58928 11.4062C6.58928 10.9887 6.92772 10.6502 7.34521 10.6502ZM13.3926 1.57909C13.8101 1.57909 14.1486 1.91753 14.1486 2.33502V12.918C14.1486 13.3355 13.8101 13.674 13.3926 13.674H2.80963C2.39214 13.674 2.0537 13.3355 2.0537 12.918V2.33502C2.0537 1.91753 2.39214 1.57909 2.80963 1.57909H13.3926Z" fill="black"/>
</svg>
