<svg width="28" height="29" viewBox="0 0 28 29" fill="none" xmlns="http://www.w3.org/2000/svg">
<path d="M17.8431 4.9502H7.27447C6.21761 4.9502 5.35291 5.87667 5.35291 7.00902V21.4208C5.35291 22.5531 6.21761 23.4796 7.27447 23.4796H20.7255C21.7823 23.4796 22.647 22.5531 22.647 21.4208V10.0973L17.8431 4.9502ZM20.7255 21.4208H7.27447V7.00902H16.8823V11.1267H20.7255V21.4208ZM9.19604 19.362H18.8039V17.3031H9.19604V19.362ZM14 9.06784H9.19604V11.1267H14V9.06784ZM9.19604 15.2443H18.8039V13.1855H9.19604V15.2443Z" fill="black"/>
<path d="M9 8.21484H13.5L17 11.7148L19.5 12.2148L20 20.2148H9V8.21484Z" fill="white"/>
</svg>
