<svg width="17" height="5" viewBox="0 0 17 5" fill="none" xmlns="http://www.w3.org/2000/svg">
<path d="M2.29244 4.168C1.68444 4.168 1.18044 3.984 0.780438 3.616C0.396438 3.232 0.204438 2.76 0.204438 2.2C0.204438 1.64 0.396438 1.176 0.780438 0.808C1.18044 0.424 1.68444 0.232 2.29244 0.232C2.88444 0.232 3.37244 0.424 3.75644 0.808C4.14044 1.176 4.33244 1.64 4.33244 2.2C4.33244 2.76 4.14044 3.232 3.75644 3.616C3.37244 3.984 2.88444 4.168 2.29244 4.168ZM8.52681 4.168C7.91881 4.168 7.41481 3.984 7.01481 3.616C6.63081 3.232 6.43881 2.76 6.43881 2.2C6.43881 1.64 6.63081 1.176 7.01481 0.808C7.41481 0.424 7.91881 0.232 8.52681 0.232C9.11881 0.232 9.60681 0.424 9.99081 0.808C10.3748 1.176 10.5668 1.64 10.5668 2.2C10.5668 2.76 10.3748 3.232 9.99081 3.616C9.60681 3.984 9.11881 4.168 8.52681 4.168ZM14.7612 4.168C14.1532 4.168 13.6492 3.984 13.2492 3.616C12.8652 3.232 12.6732 2.76 12.6732 2.2C12.6732 1.64 12.8652 1.176 13.2492 0.808C13.6492 0.424 14.1532 0.232 14.7612 0.232C15.3532 0.232 15.8412 0.424 16.2252 0.808C16.6092 1.176 16.8012 1.64 16.8012 2.2C16.8012 2.76 16.6092 3.232 16.2252 3.616C15.8412 3.984 15.3532 4.168 14.7612 4.168Z" fill="#231F20"/>
</svg>
