<svg width="16" height="16" viewBox="0 0 16 16" fill="none" xmlns="http://www.w3.org/2000/svg">
<path fill-rule="evenodd" clip-rule="evenodd" d="M3.33301 1.33301H12.6663C13.7709 1.33301 14.6663 2.22844 14.6663 3.33301V9.99967C14.6663 11.1042 13.7709 11.9997 12.6663 11.9997H11.9997V13.9997C11.9983 14.2688 11.8353 14.5107 11.5863 14.613C11.5072 14.6503 11.4205 14.6686 11.333 14.6663C11.1558 14.6674 10.9855 14.5978 10.8597 14.473L8.39301 11.9997H3.33301C2.22844 11.9997 1.33301 11.1042 1.33301 9.99967V3.33301C1.33301 2.22844 2.22844 1.33301 3.33301 1.33301ZM12.6663 10.6663C13.0345 10.6663 13.333 10.3679 13.333 9.99967V3.33301C13.333 2.96482 13.0345 2.66634 12.6663 2.66634H3.33301C2.96482 2.66634 2.66634 2.96482 2.66634 3.33301V9.99967C2.66634 10.3679 2.96482 10.6663 3.33301 10.6663H8.66634C8.84354 10.6653 9.01386 10.7349 9.13967 10.8597L10.6663 12.393V11.333C10.6663 10.9648 10.9648 10.6663 11.333 10.6663H12.6663Z" fill="#939393"/>
</svg>
