<svg width="18" height="5" viewBox="0 0 18 5" fill="none" xmlns="http://www.w3.org/2000/svg">
    <path d="M2.83438 4.668C2.22638 4.668 1.72238 4.484 1.32238 4.116C0.938384 3.732 0.746384 3.26 0.746384 2.7C0.746384 2.14 0.938384 1.676 1.32238 1.308C1.72238 0.924 2.22638 0.732 2.83438 0.732C3.42638 0.732 3.91438 0.924 4.29838 1.308C4.68238 1.676 4.87438 2.14 4.87438 2.7C4.87438 3.26 4.68238 3.732 4.29838 4.116C3.91438 4.484 3.42638 4.668 2.83438 4.668ZM9.06876 4.668C8.46076 4.668 7.95676 4.484 7.55676 4.116C7.17276 3.732 6.98076 3.26 6.98076 2.7C6.98076 2.14 7.17276 1.676 7.55676 1.308C7.95676 0.924 8.46076 0.732 9.06876 0.732C9.66076 0.732 10.1488 0.924 10.5328 1.308C10.9168 1.676 11.1088 2.14 11.1088 2.7C11.1088 3.26 10.9168 3.732 10.5328 4.116C10.1488 4.484 9.66076 4.668 9.06876 4.668ZM15.3031 4.668C14.6951 4.668 14.1911 4.484 13.7911 4.116C13.4071 3.732 13.2151 3.26 13.2151 2.7C13.2151 2.14 13.4071 1.676 13.7911 1.308C14.1911 0.924 14.6951 0.732 15.3031 0.732C15.8951 0.732 16.3831 0.924 16.7671 1.308C17.1511 1.676 17.3431 2.14 17.3431 2.7C17.3431 3.26 17.1511 3.732 16.7671 4.116C16.3831 4.484 15.8951 4.668 15.3031 4.668Z" fill="#D8D8D8"/>
</svg>