<svg width="15" height="15" viewBox="0 0 15 15" fill="none" xmlns="http://www.w3.org/2000/svg">
<path fill-rule="evenodd" clip-rule="evenodd" d="M7.97395 0.459516C7.46663 0.194736 6.77919 0.190651 6.26783 0.454748C4.30773 1.46705 2.52988 2.62772 0.971926 3.91508C0.731005 4.11416 0.560029 4.40344 0.562946 4.74395C0.565852 5.08305 0.740307 5.36847 0.979764 5.56426C2.52477 6.82756 4.30409 7.98928 6.2283 8.99356C6.73562 9.25834 7.42306 9.26243 7.93443 8.99833C9.89452 7.98603 11.6724 6.82536 13.2303 5.538C13.4712 5.33893 13.6422 5.04964 13.6393 4.70914C13.6364 4.37003 13.4619 4.08461 13.2225 3.88882C11.6775 2.62552 9.89817 1.4638 7.97395 0.459516ZM6.78814 1.46222C6.96931 1.36865 7.26691 1.36954 7.44931 1.46474C9.28572 2.42319 10.9778 3.52587 12.4437 4.71689C10.969 5.92707 9.282 7.02619 7.41412 7.99086C7.23295 8.08443 6.93534 8.08354 6.75294 7.98834C4.91654 7.02989 3.22446 5.92721 1.75854 4.73619C3.23321 3.52601 4.92026 2.42689 6.78814 1.46222Z" fill="black"/>
<path d="M14.0534 7.51821C14.2193 7.78382 14.1384 8.13355 13.8728 8.29938L9.25613 11.1817C8.62966 11.5728 7.8524 11.7536 7.10106 11.7537C6.34971 11.7537 5.57243 11.573 4.94587 11.1819L0.3798 8.33225C0.11417 8.16648 0.0332248 7.81675 0.199004 7.55112C0.364782 7.28549 0.714508 7.20454 0.980138 7.37032L5.54621 10.22C5.95755 10.4767 6.51632 10.6198 7.10099 10.6198C7.68567 10.6197 8.24439 10.4766 8.65564 10.2198L13.2723 7.33754C13.5379 7.17172 13.8876 7.25261 14.0534 7.51821Z" fill="black"/>
<path d="M14.0534 10.3565C14.2193 10.622 14.1384 10.9718 13.8728 11.1376L9.87478 13.6344C9.07529 14.1337 8.0752 14.3686 7.10103 14.3686C6.12685 14.3687 5.12671 14.1339 4.32711 13.6347L0.379743 11.1705C0.114132 11.0047 0.0332289 10.655 0.19904 10.3894C0.36485 10.1238 0.714586 10.0429 0.980196 10.2087L4.92756 12.6729C5.51191 13.0376 6.29348 13.2348 7.10096 13.2347C7.90844 13.2347 8.68995 13.0375 9.27417 12.6726L13.2722 10.1759C13.5378 10.01 13.8876 10.0909 14.0534 10.3565Z" fill="black"/>
</svg>
