<svg width="14" height="14" viewBox="0 0 14 14" fill="none" xmlns="http://www.w3.org/2000/svg">
<path fill-rule="evenodd" clip-rule="evenodd" d="M2.26966 0.455078H11.3408C12.4144 0.455078 13.2846 1.32536 13.2846 2.3989V11.4701C13.2846 12.5436 12.4144 13.4139 11.3408 13.4139H2.26966C1.19611 13.4139 0.325836 12.5436 0.325836 11.4701V2.3989C0.325836 1.32536 1.19611 0.455078 2.26966 0.455078ZM2.26967 12.1178H11.3408C11.5916 12.1159 11.8187 11.9696 11.924 11.742L4.95862 6.5261L1.62173 10.4137V11.4699C1.62173 11.8277 1.91183 12.1178 2.26967 12.1178ZM11.9888 10.1741L8.10113 7.23249L9.47476 5.85886L11.9888 7.89339V10.1741ZM9.79874 4.48509L11.9888 6.23453V2.39872C11.9888 2.04087 11.6987 1.75078 11.3408 1.75078H2.26967C1.91183 1.75078 1.62173 2.04087 1.62173 2.39872V8.42456L4.369 5.21726C4.59113 4.95754 4.9768 4.915 5.2502 5.12007L6.99316 6.47426L8.93698 4.53044C9.17091 4.29841 9.54173 4.2789 9.79874 4.48509Z" fill="black"/>
</svg>
