<svg fill="none" height="25" viewBox="0 0 25 25" width="25" xmlns="http://www.w3.org/2000/svg"><path d="m24.4138 6.1722-5.585-5.586252c-.1858-.185766-.4063-.333125-.6489-.433663-.2427-.1005383-.5028-.152285-.7655-.152285s-.5228.0517467-.7655.152285c-.2427.100538-.4632.247897-.6489.433663l-15.41374 15.414952c-.186526.1851-.334408.4054-.435051.6481-.1006429.2427-.1520383.503-.15119888.7657v5.5862c0 .5305.21071388 1.0392.58578588 1.4143.375073.375.883784.5857 1.414214.5857h5.58625c.26274.0009.52303-.0505.76573-.1512.2427-.1006.46298-.2485.64802-.435l15.41379-15.41375c.1857-.18573.3331-.40622.4336-.6489.1006-.24269.1523-.5028.1523-.76548s-.0517-.52279-.1523-.76547c-.1005-.24268-.2479-.46318-.4336-.6489zm-16.82754 16.8287h-5.58625v-5.5862l10.99999-11 5.5863 5.5862zm12.41374-12.415-5.5862-5.58495 3-3 5.5862 5.585z" fill="#000"/></svg>