<svg width="28" height="25" viewBox="0 0 28 25" fill="none" xmlns="http://www.w3.org/2000/svg">
<rect x="0.5" y="1.20605" width="26.2" height="23" rx="5.5" fill="#EAA743" fill-opacity="0.37" stroke="#EAA743"/>
<path fill-rule="evenodd" clip-rule="evenodd" d="M13.2727 15.6213C13.2386 15.6077 13.2062 15.5906 13.1761 15.5703L8.9621 12.1703C8.79817 12.0387 8.72149 11.835 8.76095 11.636C8.8004 11.437 8.94999 11.2728 9.15337 11.2053C9.35675 11.1379 9.58302 11.1774 9.74695 11.309L12.9648 13.9043V7.20632C12.9648 6.89335 13.2351 6.63965 13.5686 6.63965C13.902 6.63965 14.1723 6.89335 14.1723 7.20632V13.9043L17.4023 11.309C17.6557 11.1056 18.0368 11.1335 18.2535 11.3713C18.4703 11.6092 18.4405 11.9669 18.1871 12.1703L13.961 15.5703C13.9309 15.5906 13.8985 15.6077 13.8644 15.6213L13.792 15.6666C13.6485 15.7203 13.4886 15.7203 13.3452 15.6666L13.2727 15.6213ZM19.6059 16.8396V15.7063C19.6059 15.3934 19.3356 15.1396 19.0022 15.1396C18.6687 15.1396 18.3984 15.3934 18.3984 15.7063V16.8C18.3448 16.8273 18.2844 16.841 18.2234 16.8396H8.9138C8.85275 16.841 8.79239 16.8273 8.73872 16.8V15.7063C8.73872 15.3934 8.46842 15.1396 8.13498 15.1396C7.80155 15.1396 7.53125 15.3934 7.53125 15.7063V16.8396C7.58598 17.508 8.20088 18.012 8.9138 17.973H18.2234C18.9363 18.012 19.5512 17.508 19.6059 16.8396Z" fill="#EAA743"/>
</svg>
