<svg width="20" height="20" viewBox="0 0 20 20" fill="none" xmlns="http://www.w3.org/2000/svg">
<path d="M19.9547 10.0065C19.9618 14.6044 16.8258 18.6118 12.361 19.7102C7.89616 20.8086 3.25887 18.7134 1.13202 14.637C-0.994834 10.5605 -0.0604251 5.55842 3.39464 2.52468C6.84971 -0.50906 11.9306 -0.788771 15.6978 1.84738L15.5759 1.49263C15.38 0.895693 15.7051 0.252953 16.302 0.0570335C16.8989 -0.138886 17.5417 0.186207 17.7376 0.783148L18.8462 4.10886C18.9577 4.44706 18.9 4.81824 18.691 5.10658C18.4729 5.41365 18.1138 5.589 17.7376 5.57218H14.4119C13.7996 5.57218 13.3033 5.07586 13.3033 4.46361C13.3115 3.98218 13.6296 3.56111 14.0904 3.42155C11.091 1.5469 7.20339 1.93775 4.63717 4.37196C2.07095 6.80617 1.47552 10.6677 3.18929 13.7619C4.90306 16.856 8.49233 18.3998 11.9171 17.5157C15.3419 16.6317 17.7356 13.5435 17.7376 10.0065C17.7376 9.39422 18.2339 8.8979 18.8462 8.8979C19.4584 8.8979 19.9547 9.39422 19.9547 10.0065Z" fill="#231F20"/>
</svg>
