<svg width="15" height="16" viewBox="0 0 15 16" fill="none" xmlns="http://www.w3.org/2000/svg">
<path d="M1.40944 8.72376C1.40944 8.34282 1.10063 8.03401 0.719699 8.03401C0.338764 8.03401 0.0299555 8.34282 0.0299555 8.72376L0.0299553 14.2417C0.0299552 15.1305 0.750509 15.8511 1.63936 15.8511L12.6752 15.8511C13.5641 15.8511 14.2846 15.1305 14.2846 14.2417L14.2846 8.72375C14.2846 8.34282 13.9758 8.03401 13.5949 8.03401C13.214 8.03401 12.9052 8.34282 12.9052 8.72375L12.9052 14.2417C12.9052 14.3687 12.8022 14.4716 12.6752 14.4716L1.63936 14.4716C1.51238 14.4716 1.40944 14.3687 1.40944 14.2417L1.40944 8.72376Z" fill="black"/>
<path d="M6.13168 0.676757C5.49679 0.676757 4.98211 1.19144 4.98211 1.82633L4.98211 6.06834C4.91458 6.07434 4.84708 6.08062 4.77959 6.08718L4.26837 6.13686C3.4884 6.21267 3.0213 7.04092 3.35997 7.7476C4.08024 9.25053 5.16113 10.7023 6.36474 11.8551C6.81047 12.282 7.5134 12.282 7.95913 11.8551L8.05439 11.7639C9.25799 10.6111 10.2436 9.25053 10.9639 7.7476C11.3026 7.04091 10.8355 6.21267 10.0555 6.13686L9.54428 6.08718C9.47679 6.08062 9.40928 6.07434 9.34175 6.06834L9.34175 1.82633C9.34175 1.19144 8.82707 0.676758 8.19218 0.676758L6.13168 0.676757ZM5.74959 7.3932C6.09626 7.35412 6.36159 7.06039 6.36159 6.70784L6.36159 2.05624L7.96227 2.05624L7.96227 6.70784C7.96227 7.0721 8.24552 7.37357 8.60908 7.39625C8.87659 7.41293 9.14388 7.43425 9.41083 7.46019L9.55922 7.47461C8.9408 8.67461 8.1313 9.7668 7.16194 10.7081C6.7572 10.3151 6.38033 9.89575 6.0336 9.45326C5.54991 8.83596 5.12487 8.17358 4.76466 7.47461L4.91304 7.46019C5.17999 7.43425 5.44728 7.41293 5.71479 7.39625C5.72647 7.39552 5.73808 7.3945 5.74959 7.3932Z" fill="black"/>
</svg>
