<svg width="24" height="24" viewBox="0 0 24 24" fill="none" xmlns="http://www.w3.org/2000/svg">
<path fill-rule="evenodd" clip-rule="evenodd" d="M3.15039 11.5699C3.15039 12.1222 3.59811 12.5699 4.15039 12.5699C4.68707 12.5538 5.11526 12.1168 5.12039 11.5799C5.16129 9.26189 6.53398 7.17485 8.64623 6.2192C10.7585 5.26356 13.2323 5.61033 15.0004 7.10991H14.6804C14.1281 7.10991 13.6804 7.55762 13.6804 8.10991C13.6804 8.66219 14.1281 9.10991 14.6804 9.10991H17.5104C18.0627 9.10991 18.5104 8.66219 18.5104 8.10991V5.27991C18.5104 4.72762 18.0627 4.27991 17.5104 4.27991C16.9581 4.27991 16.5104 4.72762 16.5104 5.27991V5.71991C14.1755 3.6123 10.8223 3.06846 7.94105 4.3301C5.05977 5.59174 3.18517 8.4247 3.15039 11.5699ZM17.8404 12.2799C17.8404 11.7276 18.2881 11.2799 18.8404 11.2799C19.3849 11.2853 19.825 11.7254 19.8304 12.2699C19.8638 14.4219 19.0188 16.4946 17.4904 18.0099C14.4776 21.0075 9.64667 21.1261 6.49039 18.2799V18.7199C6.49039 19.2722 6.04268 19.7199 5.49039 19.7199C4.93811 19.7199 4.49039 19.2722 4.49039 18.7199V15.8899C4.49039 15.3376 4.93811 14.8899 5.49039 14.8899H8.35039C8.90268 14.8899 9.35039 15.3376 9.35039 15.8899C9.35039 16.4422 8.90268 16.8899 8.35039 16.8899H8.00039C9.78901 18.3797 12.2779 18.7005 14.3859 17.7129C16.4938 16.7254 17.8403 14.6077 17.8404 12.2799Z" fill="#939393"/>
</svg>
