<svg width="18" height="17" viewBox="0 0 18 17" fill="none" xmlns="http://www.w3.org/2000/svg">
<path fill-rule="evenodd" clip-rule="evenodd" d="M9.00285 12.6441C8.96283 12.6271 8.92482 12.6057 8.88952 12.5803L3.94535 8.33033C3.75302 8.16583 3.66306 7.91123 3.70935 7.66243C3.75564 7.41362 3.93115 7.20841 4.16977 7.12409C4.40838 7.03978 4.67386 7.08917 4.86618 7.25366L8.6416 10.4978V2.12533C8.6416 1.73412 8.95873 1.41699 9.34993 1.41699C9.74114 1.41699 10.0583 1.73412 10.0583 2.12533V10.4978L13.8479 7.25366C14.1452 6.99938 14.5923 7.03426 14.8466 7.33158C15.1009 7.62889 15.066 8.07604 14.7687 8.33033L9.81035 12.5803C9.77505 12.6057 9.73704 12.6271 9.69702 12.6441L9.61202 12.7007C9.44372 12.7678 9.25615 12.7678 9.08785 12.7007L9.00285 12.6441ZM16.4333 14.167V12.7503C16.4333 12.3591 16.1161 12.042 15.7249 12.042C15.3337 12.042 15.0166 12.3591 15.0166 12.7503V14.1174C14.9536 14.1516 14.8828 14.1687 14.8112 14.167H3.88868C3.81706 14.1687 3.74625 14.1516 3.68327 14.1174V12.7503C3.68327 12.3591 3.36614 12.042 2.97493 12.042C2.58373 12.042 2.2666 12.3591 2.2666 12.7503V14.167C2.33082 15.0024 3.05225 15.6325 3.88868 15.5837H14.8112C15.6476 15.6325 16.3691 15.0024 16.4333 14.167Z" fill="#EAA743"/>
</svg>
