<svg width="20" height="20" viewBox="0 0 20 20" fill="none" xmlns="http://www.w3.org/2000/svg">
<path fill-rule="evenodd" clip-rule="evenodd" d="M14.3059 12.8963L19.7043 18.2847C19.8935 18.4724 20 18.7279 20 18.9945C20 19.2611 19.8935 19.5166 19.7043 19.7043C19.5166 19.8935 19.2611 20 18.9945 20C18.7279 20 18.4724 19.8935 18.2847 19.7043L12.8963 14.3059C11.4991 15.4025 9.77382 15.9976 7.99768 15.9954C3.58068 15.9954 0 12.4147 0 7.99768C0 3.58068 3.58068 0 7.99768 0C12.4147 0 15.9954 3.58068 15.9954 7.99768C15.9976 9.77382 15.4025 11.4991 14.3059 12.8963ZM7.99763 1.99939C4.68488 1.99939 1.99936 4.6849 1.99936 7.99765C1.99936 11.3104 4.68488 13.9959 7.99763 13.9959C11.3104 13.9959 13.9959 11.3104 13.9959 7.99765C13.9959 4.6849 11.3104 1.99939 7.99763 1.99939Z" fill="black"/>
</svg>
