<svg width="32" height="31" viewBox="0 0 32 31" fill="none" xmlns="http://www.w3.org/2000/svg">
<path fill-rule="evenodd" clip-rule="evenodd" d="M29.3334 6.45801V24.5413C29.3334 26.6814 27.5425 28.4163 25.3334 28.4163H6.66669C4.45755 28.4163 2.66669 26.6814 2.66669 24.5413V6.45801C2.66669 4.3179 4.45755 2.58301 6.66669 2.58301H25.3334C27.5425 2.58301 29.3334 4.3179 29.3334 6.45801ZM13 8.76984C14.1173 7.88544 15.5901 7.54303 17 7.83984L17.0134 7.80109C19.0751 8.22924 20.5867 9.9402 20.7051 11.9797C20.8234 14.0192 19.5193 15.8835 17.52 16.5328C17.0164 16.7832 16.6905 17.2765 16.6667 17.8244V18.0828C16.6667 18.7961 16.0697 19.3744 15.3334 19.3744C14.597 19.3744 14 18.7961 14 18.0828V17.7857C14.0374 16.1426 15.0885 14.6815 16.6667 14.0786C17.5354 13.8107 18.1071 13.0075 18.0569 12.1257C18.0067 11.2438 17.3472 10.5065 16.4534 10.3328C15.8197 10.2016 15.1591 10.3639 14.6667 10.7719C14.2063 11.141 13.9418 11.6913 13.9467 12.2703C13.9467 12.9836 13.3497 13.5619 12.6134 13.5619C11.877 13.5619 11.28 12.9836 11.28 12.2703C11.2759 10.9112 11.9085 9.62367 13 8.76984ZM16.72 22.0618C16.7167 21.889 16.6805 21.7182 16.6133 21.5581C16.5526 21.3914 16.4521 21.2409 16.32 21.1189C15.8 20.6181 14.9601 20.6181 14.44 21.1189C14.3153 21.2368 14.2156 21.3772 14.1467 21.5322C14.0835 21.6931 14.0518 21.8639 14.0533 22.036C14.0583 22.378 14.1964 22.7055 14.44 22.9531C14.6916 23.1948 15.0323 23.3296 15.3867 23.3276H15.64L15.8933 23.2501C15.9729 23.2193 16.0489 23.1803 16.12 23.1339L16.32 22.9789C16.5745 22.7373 16.7185 22.407 16.72 22.0618ZM25.3333 5.16668C26.0697 5.16668 26.6667 5.74498 26.6667 6.45834V24.5417C26.6667 25.255 26.0697 25.8333 25.3333 25.8333H6.66668C5.9303 25.8333 5.33335 25.255 5.33335 24.5417V6.45834C5.33335 5.74498 5.9303 5.16668 6.66668 5.16668H25.3333Z" fill="#F2F2F2"/>
</svg>
