<svg width="18" height="18" viewBox="0 0 18 18" fill="none" xmlns="http://www.w3.org/2000/svg">
<path fill-rule="evenodd" clip-rule="evenodd" d="M9.30412 2.52393C9.34614 2.54092 9.38605 2.5623 9.42312 2.58768L14.6145 6.83768C14.8164 7.00217 14.9109 7.25677 14.8623 7.50558C14.8137 7.75438 14.6294 7.9596 14.3789 8.04391C14.1283 8.12823 13.8496 8.07884 13.6476 7.91434L9.68343 4.67018V13.0427C9.68343 13.4339 9.35045 13.751 8.93968 13.751C8.52892 13.751 8.19593 13.4339 8.19593 13.0427V4.67018L4.21687 7.91434C3.90469 8.16863 3.43518 8.13374 3.16818 7.83643C2.90119 7.53911 2.93782 7.09196 3.25 6.83768L8.45625 2.58768C8.49332 2.5623 8.53323 2.54092 8.57525 2.52393L8.6645 2.46726C8.8412 2.40024 9.03816 2.40024 9.21487 2.46726L9.30412 2.52393ZM16.3623 13.8762V12.4595C16.3623 12.0683 16.0293 11.7512 15.6186 11.7512C15.2078 11.7512 14.8748 12.0683 14.8748 12.4595V13.8266C14.8087 13.8607 14.7343 13.8778 14.6591 13.8762H3.19049C3.11529 13.8778 3.04093 13.8607 2.9748 13.8266V12.4595C2.9748 12.0683 2.64182 11.7512 2.23105 11.7512C1.82029 11.7512 1.4873 12.0683 1.4873 12.4595V13.8762C1.55473 14.7115 2.31224 15.3416 3.19049 15.2928H14.6591C15.5374 15.3416 16.2949 14.7115 16.3623 13.8762Z" fill="#F05E3F"/>
</svg>
