<svg width="31" height="33" viewBox="0 0 31 33" fill="none" xmlns="http://www.w3.org/2000/svg">
<path fill-rule="evenodd" clip-rule="evenodd" d="M24.5416 8.13478H23.25V6.77907C23.25 4.53284 21.5151 2.71191 19.375 2.71191H6.45831C4.31821 2.71191 2.58331 4.53284 2.58331 6.77907V16.2691C2.58331 18.5153 4.31821 20.3362 6.45831 20.3362V23.0477C6.45979 23.5582 6.73437 24.0245 7.16873 24.2543C7.34698 24.3558 7.54722 24.4071 7.74998 24.4034C8.02946 24.4034 8.3014 24.3083 8.52498 24.1323C9.25679 25.1564 10.4053 25.7591 11.625 25.7591H17.6571L22.475 29.5551C22.6986 29.7311 22.9705 29.8263 23.25 29.8263C23.4527 29.83 23.653 29.7786 23.8312 29.6771C24.2656 29.4474 24.5402 28.9811 24.5416 28.4705V25.7591C26.6817 25.7591 28.4166 23.9382 28.4166 21.692V12.2019C28.4166 9.95571 26.6817 8.13478 24.5416 8.13478ZM9.04165 20.3362V18.9805C9.04165 18.2318 8.46335 17.6248 7.74998 17.6248H6.45831C5.74495 17.6248 5.16665 17.0178 5.16665 16.2691V6.77907C5.16665 6.03032 5.74495 5.42335 6.45831 5.42335H19.375C20.0883 5.42335 20.6666 6.03032 20.6666 6.77907V16.2691C20.6666 17.0178 20.0883 17.6248 19.375 17.6248H12.9166C12.6372 17.6248 12.3652 17.7199 12.1416 17.896L9.04165 20.3362ZM24.5416 23.0477C25.255 23.0477 25.8333 22.4407 25.8333 21.692V12.2019C25.8333 11.4532 25.255 10.8462 24.5416 10.8462H23.25V16.2691C23.25 18.5153 21.5151 20.3362 19.375 20.3362H13.3429L10.6175 22.4918C10.8532 22.8308 11.2253 23.0361 11.625 23.0477H18.0833C18.3628 23.0477 18.6347 23.1428 18.8583 23.3188L21.9583 25.7591V24.4034C21.9583 23.6547 22.5366 23.0477 23.25 23.0477H24.5416Z" fill="#F2F2F2"/>
</svg>
