<svg width="28" height="27" viewBox="0 0 28 27" fill="none" xmlns="http://www.w3.org/2000/svg">
<circle cx="14.0044" cy="13.1303" r="13.1303" fill="#F07C50"/>
<path fill-rule="evenodd" clip-rule="evenodd" d="M21.5204 12.9229L9.81941 7.07237C9.58413 6.95097 9.29872 6.9844 9.09785 7.15688C8.89781 7.33061 8.82323 7.60837 8.90934 7.85894L10.827 13.5014L8.94184 19.1439C8.87629 19.3372 8.90537 19.5501 9.02038 19.7188C9.13539 19.8875 9.32296 19.9923 9.52689 20.0019C9.62865 20.0013 9.72885 19.9768 9.81941 19.9304L21.5204 14.0799C21.7375 13.9687 21.874 13.7453 21.874 13.5014C21.874 13.2575 21.7375 13.0341 21.5204 12.9229ZM10.6384 18.0517L11.9385 14.1514H18.4391L10.6384 18.0517ZM10.6384 8.95117L11.9385 12.8515H18.4716L10.6384 8.95117Z" fill="white"/>
</svg>
