<svg width="32" height="32" viewBox="0 0 32 32" fill="none" xmlns="http://www.w3.org/2000/svg">
<path fill-rule="evenodd" clip-rule="evenodd" d="M16 29.3337C8.63622 29.3337 2.66669 23.3641 2.66669 16.0003C2.66669 8.63653 8.63622 2.66699 16 2.66699C19.5362 2.66699 22.9276 4.07175 25.4281 6.57224C27.9286 9.07272 29.3334 12.4641 29.3334 16.0003C29.3334 23.3641 23.3638 29.3337 16 29.3337ZM22.4462 8.31051C23.0105 8.78356 22.9955 9.73065 22.4127 10.4259L11.8604 23.0143C11.2776 23.7095 10.3477 23.8896 9.78339 23.4166C9.21905 22.9435 9.23401 21.9964 9.8168 21.3012L20.3691 8.7128C20.9519 8.01757 21.8818 7.83745 22.4462 8.31051ZM16 5.33366C21.8911 5.33366 26.6667 10.1093 26.6667 16.0003C26.6667 18.8293 25.5429 21.5424 23.5425 23.5428C21.5421 25.5432 18.829 26.667 16 26.667C10.109 26.667 5.33335 21.8914 5.33335 16.0003C5.33335 10.1093 10.109 5.33366 16 5.33366Z" fill="white"/>
</svg>
