<svg width="28" height="25" viewBox="0 0 28 25" fill="none" xmlns="http://www.w3.org/2000/svg">
<rect x="0.5" y="0.912109" width="26.2" height="23" rx="5.5" fill="#F05E3F" fill-opacity="0.37" stroke="#F05E3F"/>
<path fill-rule="evenodd" clip-rule="evenodd" d="M14.3041 6.22998C14.3461 6.24698 14.3861 6.26836 14.4231 6.29373L19.6145 10.5437C19.8164 10.7082 19.9109 10.9628 19.8623 11.2116C19.8137 11.4604 19.6294 11.6656 19.3789 11.75C19.1283 11.8343 18.8496 11.7849 18.6476 11.6204L14.6834 8.37623V16.7487C14.6834 17.1399 14.3504 17.4571 13.9397 17.4571C13.5289 17.4571 13.1959 17.1399 13.1959 16.7487V8.37623L9.21687 11.6204C8.90469 11.8747 8.43518 11.8398 8.16818 11.5425C7.90119 11.2452 7.93782 10.798 8.25 10.5437L13.4562 6.29373C13.4933 6.26836 13.5332 6.24698 13.5752 6.22998L13.6645 6.17332C13.8412 6.10629 14.0382 6.10629 14.2149 6.17332L14.3041 6.22998ZM21.3623 17.5822V16.1655C21.3623 15.7743 21.0293 15.4572 20.6186 15.4572C20.2078 15.4572 19.8748 15.7743 19.8748 16.1655V17.5326C19.8087 17.5668 19.7343 17.5839 19.6591 17.5822H8.19049C8.11529 17.5839 8.04093 17.5668 7.9748 17.5326V16.1655C7.9748 15.7743 7.64182 15.4572 7.23105 15.4572C6.82029 15.4572 6.4873 15.7743 6.4873 16.1655V17.5822C6.55473 18.4176 7.31224 19.0477 8.19049 18.9989H19.6591C20.5374 19.0477 21.2949 18.4176 21.3623 17.5822Z" fill="#F05E3F"/>
</svg>
