<svg width="20" height="20" viewBox="0 0 20 20" fill="none" xmlns="http://www.w3.org/2000/svg">
<path fill-rule="evenodd" clip-rule="evenodd" d="M19.453 9.11073L1.45423 0.111328C1.09231 -0.0754156 0.653285 -0.0239988 0.344304 0.241319C0.0365955 0.508561 -0.0781296 0.935813 0.0543236 1.32125L3.00413 10.0007L0.10432 18.6801C0.00347963 18.9775 0.0482172 19.305 0.225128 19.5645C0.402038 19.8239 0.690567 19.9852 1.00426 20C1.16079 19.9991 1.31492 19.9614 1.45423 19.89L19.453 10.8906C19.787 10.7195 19.997 10.3759 19.997 10.0007C19.997 9.62545 19.787 9.28181 19.453 9.11073ZM2.71409 17.0002L4.71396 11.0006H14.7133L2.71409 17.0002ZM2.71409 3.00105L4.71396 9.00065H14.7633L2.71409 3.00105Z" fill="#EAA743"/>
</svg>
