<svg width="40" height="40" viewBox="0 0 40 40" fill="none" xmlns="http://www.w3.org/2000/svg">
<rect width="40" height="40" rx="20" fill="#F07C50"/>
<path fill-rule="evenodd" clip-rule="evenodd" d="M24.4357 22.9838L29.9977 28.5356C30.1927 28.729 30.3023 28.9922 30.3023 29.2669C30.3023 29.5415 30.1927 29.8048 29.9977 29.9982C29.8043 30.1932 29.541 30.3028 29.2664 30.3028C28.9917 30.3028 28.7285 30.1932 28.5351 29.9982L22.9833 24.4361C21.5439 25.566 19.7663 26.1791 17.9363 26.1768C13.3855 26.1768 9.69629 22.4877 9.69629 17.9368C9.69629 13.386 13.3855 9.69678 17.9363 9.69678C22.4872 9.69678 26.1764 13.386 26.1764 17.9368C26.1786 19.7668 25.5656 21.5444 24.4357 22.9838ZM17.936 11.7564C14.5228 11.7564 11.7559 14.5233 11.7559 17.9364C11.7559 21.3495 14.5228 24.1164 17.936 24.1164C21.3491 24.1164 24.116 21.3495 24.116 17.9364C24.116 14.5233 21.3491 11.7564 17.936 11.7564Z" fill="white"/>
</svg>
