<svg width="32" height="34" viewBox="0 0 32 34" fill="none" xmlns="http://www.w3.org/2000/svg">
<path fill-rule="evenodd" clip-rule="evenodd" d="M29.5 26.8225V9.33839C29.5 7.26921 27.8211 5.5918 25.75 5.5918H8.25C6.17893 5.5918 4.5 7.26921 4.5 9.33839V26.8225C4.5 28.8917 6.17893 30.5691 8.25 30.5691H25.75C27.8211 30.5691 29.5 28.8917 29.5 26.8225ZM22 15.5827C20.6193 15.5827 19.5 16.701 19.5 18.0805C19.5 19.4599 20.6193 20.5782 22 20.5782C23.3807 20.5782 24.5 19.4599 24.5 18.0805C24.5 16.701 23.3807 15.5827 22 15.5827ZM27 14.3339H18.25C17.5596 14.3339 17 14.893 17 15.5827V20.5782C17 21.2679 17.5596 21.8271 18.25 21.8271H27V14.3339ZM25.75 8.08953C26.4404 8.08953 27 8.64867 27 9.33839V11.8361H18.25C16.1789 11.8361 14.5 13.5135 14.5 15.5827V20.5782C14.5 22.6474 16.1789 24.3248 18.25 24.3248H27V26.8225C27 27.5122 26.4404 28.0714 25.75 28.0714H8.25C7.55964 28.0714 7 27.5122 7 26.8225V9.33839C7 8.64867 7.55964 8.08953 8.25 8.08953H25.75Z" fill="#F2F2F2"/>
</svg>
