<svg width="22" height="27" viewBox="0 0 22 27" fill="none" xmlns="http://www.w3.org/2000/svg">
<path d="M8.33329 0C7.78101 0 7.33329 0.435964 7.33329 0.973752V1.9475H1.66663C1.11434 1.9475 0.666626 2.38347 0.666626 2.92126C0.666626 3.45905 1.11434 3.89501 1.66663 3.89501H20.3333C20.8856 3.89501 21.3333 3.45905 21.3333 2.92126C21.3333 2.38347 20.8856 1.9475 20.3333 1.9475H14.6666V0.973752C14.6666 0.435964 14.2189 0 13.6666 0H8.33329Z" fill="white"/>
<path d="M8.33329 10.906C8.88558 10.906 9.33329 11.342 9.33329 11.8798L9.33329 20.9681C9.33329 21.5059 8.88558 21.9419 8.33329 21.9419C7.78101 21.9419 7.33329 21.5059 7.33329 20.9681L7.33329 11.8798C7.33329 11.342 7.78101 10.906 8.33329 10.906Z" fill="white"/>
<path d="M14.6666 11.8798C14.6666 11.342 14.2189 10.906 13.6666 10.906C13.1143 10.906 12.6666 11.342 12.6666 11.8798V20.9681C12.6666 21.5059 13.1143 21.9419 13.6666 21.9419C14.2189 21.9419 14.6666 21.5059 14.6666 20.9681V11.8798Z" fill="white"/>
<path fill-rule="evenodd" clip-rule="evenodd" d="M2.98853 7.3579C3.0448 6.86476 3.47286 6.49168 3.98241 6.49168H18.0175C18.527 6.49168 18.9551 6.86476 19.0114 7.3579L19.2782 9.69665C19.762 13.9361 19.762 18.2148 19.2782 22.4543L19.252 22.6845C19.0599 24.3673 17.7206 25.7092 15.9985 25.944C12.6823 26.396 9.3176 26.396 6.0014 25.944C4.27935 25.7092 2.93995 24.3673 2.74793 22.6845L2.72166 22.4543C2.23791 18.2148 2.23791 13.9361 2.72166 9.69665L2.98853 7.3579ZM4.87745 8.43919L4.70943 9.91172C4.24199 14.0083 4.24199 18.1426 4.70943 22.2392L4.7357 22.4694C4.82677 23.2675 5.46199 23.9039 6.27869 24.0153C9.41092 24.4423 12.589 24.4423 15.7212 24.0153C16.5379 23.9039 17.1731 23.2675 17.2642 22.4694L17.2905 22.2392C17.7579 18.1426 17.7579 14.0083 17.2905 9.91172L17.1225 8.43919H4.87745Z" fill="white"/>
</svg>
