<svg width="28" height="28" viewBox="0 0 28 28" fill="none" xmlns="http://www.w3.org/2000/svg">
<path fill-rule="evenodd" clip-rule="evenodd" d="M22 23.375V19.25C22 18.4906 21.3844 17.875 20.625 17.875C19.8656 17.875 19.25 18.4906 19.25 19.25V23.375C19.25 24.1344 18.6344 24.75 17.875 24.75H4.125C3.36561 24.75 2.75 24.1344 2.75 23.375V4.125C2.75 3.36561 3.36561 2.75 4.125 2.75H17.875C18.6344 2.75 19.25 3.36561 19.25 4.125V8.25C19.25 9.00939 19.8656 9.625 20.625 9.625C21.3844 9.625 22 9.00939 22 8.25V4.125C22 1.84683 20.1532 0 17.875 0H4.125C1.84683 0 0 1.84683 0 4.125V23.375C0 25.6532 1.84683 27.5 4.125 27.5H17.875C20.1532 27.5 22 25.6532 22 23.375ZM24.3512 10.024L27.1012 12.774C27.3616 13.0321 27.508 13.3836 27.508 13.7502C27.508 14.1168 27.3616 14.4683 27.1012 14.7265L24.3512 17.4765C24.0931 17.7368 23.7416 17.8832 23.375 17.8832C23.0084 17.8832 22.6569 17.7368 22.3988 17.4765C22.1384 17.2183 21.992 16.8668 21.992 16.5002C21.992 16.1336 22.1384 15.7821 22.3988 15.524C22.5487 15.379 22.4461 15.1252 22.2375 15.1252H13.75C12.9906 15.1252 12.375 14.5096 12.375 13.7502C12.375 12.9908 12.9906 12.3752 13.75 12.3752H22.2375C22.4461 12.3752 22.5487 12.1214 22.3988 11.9765C21.8596 11.4373 21.8596 10.5631 22.3988 10.024C22.9379 9.4848 23.8121 9.4848 24.3512 10.024Z" fill="#F2F2F2"/>
</svg>
