<svg width="29" height="29" viewBox="0 0 29 29" fill="none" xmlns="http://www.w3.org/2000/svg">
<circle cx="14.5608" cy="14.1869" r="14.1869" fill="#EAA743"/>
<path fill-rule="evenodd" clip-rule="evenodd" d="M10.3458 8.81988C10.2711 7.92352 11.2754 7.42792 11.9648 7.88845L12.1878 8.03742C15.5881 10.3089 18.7703 12.8724 21.696 15.6968C22.4248 16.4004 21.7821 17.5108 20.8727 17.4134L16.9106 16.9891C16.5072 16.9459 16.1355 17.1628 15.9824 17.5006L14.3809 21.0343C13.9942 21.8878 12.7202 21.8085 12.4667 20.8876C11.4023 17.0213 10.6997 13.0699 10.3676 9.08131L10.3458 8.81988ZM11.4871 8.92647L11.4922 8.98765C11.8102 12.8068 12.474 16.5915 13.4756 20.2981L14.9545 17.0348C15.316 16.2372 16.1611 15.7739 17.0308 15.867L20.6473 16.2543C17.8434 13.5772 14.8031 11.1417 11.5609 8.9758L11.4871 8.92647Z" fill="black"/>
</svg>
