<svg width="15" height="17" viewBox="0 0 15 17" fill="none" xmlns="http://www.w3.org/2000/svg">
<path d="M1.40944 9.00891C1.40944 8.62798 1.10063 8.31917 0.719699 8.31917C0.338764 8.31917 0.0299555 8.62798 0.0299555 9.00891L0.0299553 14.5269C0.0299552 15.4157 0.750509 16.1363 1.63936 16.1363L12.6752 16.1363C13.5641 16.1363 14.2846 15.4157 14.2846 14.5269L14.2846 9.00891C14.2846 8.62798 13.9758 8.31917 13.5949 8.31917C13.214 8.31917 12.9052 8.62798 12.9052 9.00891L12.9052 14.5269C12.9052 14.6538 12.8022 14.7568 12.6752 14.7568L1.63936 14.7568C1.51238 14.7568 1.40944 14.6538 1.40944 14.5269L1.40944 9.00891Z" fill="black"/>
<path  d="M4.98211 11.3109C4.98211 11.9458 5.49679 12.4605 6.13168 12.4605L8.19218 12.4605C8.82707 12.4605 9.34175 11.9458 9.34175 11.3109L9.34175 7.06888C9.40928 7.06288 9.47679 7.0566 9.54428 7.05004L10.0555 7.00035C10.8355 6.92454 11.3026 6.0963 10.9639 5.38961C10.2436 3.88669 9.25799 2.52611 8.05439 1.37333L7.95913 1.2821C7.5134 0.855186 6.81047 0.855186 6.36474 1.2821L6.26949 1.37333C5.06588 2.52611 4.08024 3.88669 3.35997 5.38961C3.0213 6.0963 3.4884 6.92454 4.26837 7.00035L4.77959 7.05004C4.84708 7.0566 4.91458 7.06288 4.98211 7.06888L4.98211 11.3109ZM6.36159 6.42937C6.36159 6.18441 6.23349 5.96784 6.03902 5.84537C5.94431 5.78572 5.83385 5.74839 5.71479 5.74097C5.44728 5.72428 5.17999 5.70297 4.91304 5.67702L4.76466 5.6626C5.25569 4.70979 5.86718 3.82496 6.58351 3.02965C6.76935 2.82332 6.96225 2.62302 7.16194 2.42911C8.13131 3.37042 8.9408 4.4626 9.55922 5.6626L9.41083 5.67702C9.14388 5.70297 8.87659 5.72428 8.60908 5.74097C8.24552 5.76364 7.96227 6.06511 7.96227 6.42937L7.96227 11.081L6.36159 11.081L6.36159 6.42937Z" fill="black"/>
</svg>
