<svg width="25" height="18" viewBox="0 0 25 18" fill="none" xmlns="http://www.w3.org/2000/svg">
<path fill-rule="evenodd" clip-rule="evenodd" d="M24.6192 15.7903C24.9347 15.4631 25.0086 14.972 24.8033 14.5665L23.8044 12.5939C21.4403 7.9251 16.6517 4.98237 11.4185 4.98238H10.9274C10.8916 4.20438 10.8454 3.42674 10.7887 2.64967L10.6921 1.32452C10.6136 0.24687 9.41198 -0.355542 8.50148 0.226244C5.51459 2.1348 2.91794 4.59403 0.849958 7.47285L0.200502 8.37695C-0.0669518 8.74926 -0.0669518 9.25074 0.200502 9.62306L0.849958 10.5272C2.91794 13.406 5.51459 15.8652 8.50148 17.7738C9.41199 18.3555 10.6136 17.7531 10.6921 16.6755L10.7887 15.3503C10.8564 14.4223 10.9092 13.4935 10.9471 12.5643C14.0083 12.4759 17.0658 13.0938 19.8757 14.3906L23.403 16.0186C23.8157 16.2091 24.3037 16.1175 24.6192 15.7903ZM21.4606 12.7698L20.7707 12.4513C17.3375 10.8668 13.5704 10.1978 9.83249 10.4849C9.28811 10.5267 8.86294 10.9724 8.84681 11.5181C8.81054 12.7446 8.74778 13.9706 8.65853 15.195L8.6508 15.3011C6.31065 13.647 4.25984 11.6131 2.58465 9.28104L2.38277 9L2.58465 8.71896C4.25984 6.38695 6.31065 4.35304 8.65079 2.69893L8.65852 2.80495C8.7382 3.89796 8.79676 4.99212 8.83421 6.08683C8.85389 6.66208 9.32593 7.11825 9.90152 7.11825L11.4185 7.11825C15.5441 7.11825 19.343 9.27961 21.4606 12.7698Z" fill="black"/>
</svg>
