<svg width="9" height="10" viewBox="0 0 9 10" fill="none" xmlns="http://www.w3.org/2000/svg">
<path d="M7.36878 6.56634L4.74378 9.06634C4.7246 9.08041 4.70455 9.09294 4.68378 9.10384L4.63878 9.13717C4.54968 9.1766 4.45037 9.1766 4.36128 9.13717L4.31628 9.10384C4.2955 9.09294 4.27545 9.08041 4.25628 9.06634L1.63128 6.56634C1.47387 6.41676 1.45541 6.15373 1.59003 5.97884C1.72465 5.80395 1.96137 5.78343 2.11878 5.93301L4.12503 7.84551V1.24967C4.12503 1.01956 4.29292 0.833008 4.50003 0.833008C4.70713 0.833008 4.87503 1.01956 4.87503 1.24967V7.84551L6.88128 5.93301C7.03868 5.78343 7.27541 5.80395 7.41003 5.97884C7.54465 6.15373 7.52618 6.41676 7.36878 6.56634Z" fill="#A4A4A5"/>
</svg>
