<svg width="32" height="34" viewBox="0 0 32 34" fill="none" xmlns="http://www.w3.org/2000/svg">
<path fill-rule="evenodd" clip-rule="evenodd" d="M9.33334 2.87988H22.6667C24.9223 2.93335 26.7113 4.89017 26.6667 7.25499V27.7747C26.6723 28.915 26.0414 29.9535 25.0533 30.4305C24.7166 30.584 24.3538 30.6648 23.9867 30.6681C23.3381 30.6639 22.7147 30.4045 22.24 29.9412L16 23.9866L9.76 29.9412C8.99115 30.6605 7.89585 30.8509 6.94667 30.4305C5.95861 29.9535 5.32776 28.915 5.33334 27.7747V7.25499C5.28867 4.89017 7.07771 2.93335 9.33334 2.87988ZM17.7733 21.9179L24 27.8725V7.25499C24.0383 6.43633 23.4464 5.73521 22.6667 5.67548H9.33334C8.55357 5.73521 7.96173 6.43633 8.00001 7.25499V27.7747L14.1733 21.9179C15.1923 20.9406 16.7544 20.9406 17.7733 21.9179Z" fill="#F2F2F2"/>
</svg>
