<svg width="27" height="27" viewBox="0 0 27 27" fill="none" xmlns="http://www.w3.org/2000/svg">
<circle cx="13.1303" cy="13.1303" r="13.1303" fill="#C3C3C3"/>
<path fill-rule="evenodd" clip-rule="evenodd" d="M9.22898 8.16325C9.15989 7.33365 10.0894 6.87497 10.7274 7.30119L10.9338 7.43907C14.0808 9.54138 17.0261 11.9139 19.7339 14.528C20.4084 15.1792 19.8136 16.2069 18.9719 16.1168L15.3049 15.7241C14.9315 15.6841 14.5875 15.8848 14.4458 16.1975L12.9636 19.468C12.6056 20.2579 11.4265 20.1845 11.1919 19.3323C10.2068 15.7539 9.55658 12.0967 9.24913 8.40521L9.22898 8.16325ZM10.2853 8.2619L10.29 8.31853C10.5844 11.8532 11.1987 15.356 12.1257 18.7866L13.4945 15.7663C13.829 15.0282 14.6112 14.5994 15.4161 14.6856L18.7632 15.044C16.1682 12.5663 13.3544 10.3122 10.3536 8.30756L10.2853 8.2619Z" fill="black"/>
</svg>
