<svg width="16" height="14" viewBox="0 0 16 14" fill="none" xmlns="http://www.w3.org/2000/svg">
<path d="M15.2728 7.06295C15.2705 7.15927 15.2527 7.25456 15.22 7.34507C15.2026 7.37728 15.1824 7.4079 15.1597 7.43657C15.14 7.47882 15.1174 7.51959 15.0919 7.55857L10.5703 12.8961C10.3953 13.1031 10.1244 13.1999 9.8597 13.1501C9.595 13.1003 9.37667 12.9114 9.28696 12.6545C9.19726 12.3976 9.24981 12.1119 9.42481 11.9048L12.8839 7.82545H0.954289C0.538084 7.82545 0.200684 7.48406 0.200684 7.06295C0.200684 6.64183 0.538084 6.30045 0.954289 6.30045H12.8839L9.42481 2.22107C9.24981 2.01404 9.19726 1.72826 9.28696 1.4714C9.37667 1.21453 9.595 1.0256 9.8597 0.975772C10.1244 0.925943 10.3953 1.02279 10.5703 1.22982L15.0919 6.56732C15.1174 6.60631 15.14 6.64708 15.1597 6.68932C15.1824 6.71799 15.2026 6.74861 15.22 6.78082C15.2527 6.87133 15.2705 6.96662 15.2728 7.06295Z" fill="white"/>
</svg>
