<svg width="24" height="24" viewBox="0 0 24 24" fill="none" xmlns="http://www.w3.org/2000/svg">
<path fill-rule="evenodd" clip-rule="evenodd" d="M20.31 14.0498C20.0771 14.1813 19.8533 14.3283 19.64 14.4898C19.7149 14.7606 19.8119 15.0248 19.93 15.2798L19.9422 15.3092C20.2701 16.104 20.6728 17.0797 20.09 17.8798C19.5 18.6898 18.42 18.6098 17.55 18.5298C17.2737 18.5103 16.9963 18.5103 16.72 18.5298C16.6556 18.6953 16.5744 19.0214 16.5151 19.2594L16.5 19.3198C16.31 20.1698 16.06 21.2298 15.09 21.5398C14.9382 21.5898 14.7798 21.6167 14.62 21.6198C13.8805 21.5194 13.1985 21.1661 12.69 20.6198C12.4763 20.3956 12.2457 20.1883 12 19.9998C11.7571 20.1627 11.5265 20.3432 11.31 20.5398L11.3061 20.5431C10.6568 21.1026 9.84812 21.7993 8.91 21.5398C7.97 21.2798 7.69 20.1398 7.5 19.2898L7.48494 19.2294C7.42563 18.9914 7.34436 18.6653 7.28 18.4998C7.00367 18.4803 6.72633 18.4803 6.45 18.4998C5.58 18.5798 4.51 18.6698 3.91 17.8498C3.32552 17.051 3.71844 16.1004 4.0442 15.3122L4.07 15.2498C4.18814 14.9948 4.28513 14.7306 4.36 14.4598C4.14672 14.2983 3.92289 14.1513 3.69 14.0198C2.94 13.5998 2 12.9998 2 11.9998C2 10.9998 2.94 10.3998 3.69 9.99978C3.92289 9.86821 4.14672 9.72121 4.36 9.55978C4.28513 9.28895 4.18814 9.02472 4.07 8.76978L4.05785 8.74032C3.72987 7.94558 3.32722 6.96986 3.91 6.16978C4.5 5.35978 5.58 5.43978 6.45 5.51978C6.72633 5.53923 7.00367 5.53923 7.28 5.51978C7.34436 5.35427 7.42563 5.02814 7.48495 4.79013L7.48495 4.79012L7.5 4.72978C7.69 3.87978 7.94 2.81978 8.91 2.50978C9.8575 2.20697 10.6237 2.86785 11.2646 3.4206L11.31 3.45978C11.5265 3.65635 11.7571 3.83683 12 3.99978C12.2429 3.83683 12.4735 3.65635 12.69 3.45978L12.7083 3.44404C13.355 2.88678 14.1489 2.20267 15.09 2.50978C16.04 2.81978 16.31 3.87978 16.5 4.72978L16.5151 4.79014C16.5744 5.02815 16.6556 5.35428 16.72 5.51978C16.9963 5.53923 17.2737 5.53923 17.55 5.51978C18.42 5.43978 19.49 5.34978 20.09 6.16978C20.6745 6.96856 20.2816 7.91917 19.9558 8.70732L19.93 8.76978C19.8119 9.02472 19.7149 9.28895 19.64 9.55978C19.8533 9.72121 20.0771 9.86821 20.31 9.99978C21.06 10.3998 22 10.9998 22 11.9998C22 12.9998 21.06 13.5998 20.31 14.0498ZM15.62 8.71978C16.0489 9.06323 16.1204 9.68841 15.78 10.1198L11.78 15.1198C11.6048 15.3428 11.343 15.481 11.06 15.4998H11C10.7342 15.5013 10.4787 15.397 10.29 15.2098L8.29 13.2098C7.89788 12.8177 7.89788 12.1819 8.29 11.7898C8.68212 11.3977 9.31788 11.3977 9.71 11.7898L10.92 12.9998L14.22 8.87978C14.5635 8.45087 15.1886 8.37942 15.62 8.71978ZM19.28 11.6598C19.43 11.7498 19.64 11.8798 19.81 11.9998C19.64 12.1198 19.43 12.2498 19.31 12.2698C18.618 12.5667 18.0592 13.1077 17.74 13.7898C17.5945 14.5417 17.7297 15.3209 18.12 15.9798L18.33 16.5098H17.75C17.0054 16.3471 16.227 16.4608 15.56 16.8298C14.9871 17.347 14.6301 18.0611 14.56 18.8298C14.5449 18.8903 14.5283 18.9595 14.5108 19.0324C14.4822 19.152 14.4511 19.2817 14.42 19.3998C14.27 19.2898 14.11 19.1498 14 19.0498C13.4776 18.4754 12.7694 18.1036 12 17.9998C11.2247 18.142 10.5259 18.557 10.03 19.1698C9.92 19.2698 9.76 19.4098 9.61 19.5198C9.59497 19.4627 9.57632 19.4028 9.55759 19.3427C9.51402 19.2029 9.47 19.0617 9.47 18.9498C9.39994 18.1811 9.0429 17.467 8.47 16.9498C7.80303 16.5808 7.02464 16.4671 6.28 16.6298H5.7L5.91 16.0998C6.30033 15.4409 6.43553 14.6617 6.29 13.9098C5.97081 13.2277 5.41205 12.6867 4.72 12.3898C4.57 12.2998 4.36 12.1698 4.19 12.0498C4.36 11.9298 4.57 11.7998 4.72 11.7098C5.41205 11.4128 5.97081 10.8719 6.29 10.1898C6.43553 9.43787 6.30033 8.6587 5.91 7.99978L5.64 7.46978H6.22C6.96464 7.63245 7.74303 7.51871 8.41 7.14978C8.9829 6.63252 9.33994 5.91845 9.41 5.14978C9.42514 5.08921 9.44172 5.02005 9.45918 4.94717C9.48785 4.82752 9.51893 4.69785 9.55 4.57978C9.7 4.68978 9.86 4.82978 9.97 4.92978C10.5 5.4857 11.2073 5.83935 11.97 5.92978C12.7327 5.83935 13.44 5.4857 13.97 4.92978C14.08 4.82978 14.24 4.68978 14.39 4.57978C14.405 4.6369 14.4237 4.69673 14.4424 4.75683C14.486 4.89663 14.53 5.03788 14.53 5.14978C14.6001 5.91845 14.9571 6.63252 15.53 7.14978C16.197 7.51871 16.9754 7.63245 17.72 7.46978H18.3L18.09 7.99978C17.7118 8.64482 17.577 9.40395 17.71 10.1398C18.0292 10.8219 18.588 11.3628 19.28 11.6598Z" fill="#F07C50"/>
</svg>
