<svg width="25" height="25" viewBox="0 0 25 25" fill="none" xmlns="http://www.w3.org/2000/svg">
<path fill-rule="evenodd" clip-rule="evenodd" d="M3.70439 0H20.9916C23.0374 0 24.6959 1.65851 24.6959 3.70439V6.17399C24.6959 6.85595 24.1431 7.40878 23.4611 7.40878H22.2264V20.9916C22.2264 23.0374 20.5678 24.6959 18.522 24.6959H6.17399C4.12811 24.6959 2.46959 23.0374 2.46959 20.9916V7.40878H1.2348C0.552838 7.40878 0 6.85595 0 6.17399V3.70439C0 1.65851 1.65851 0 3.70439 0ZM18.5219 22.2266C19.2039 22.2266 19.7567 21.6738 19.7567 20.9918V7.40903H4.93917V20.9918C4.93917 21.6738 5.492 22.2266 6.17396 22.2266H18.5219ZM22.2264 4.93922H2.4696V3.70443C2.4696 3.02247 3.02244 2.46963 3.7044 2.46963H20.9916C21.6735 2.46963 22.2264 3.02247 22.2264 3.70443V4.93922ZM7.40878 11.1134V18.5221C7.40878 19.2041 7.96162 19.7569 8.64358 19.7569C9.32554 19.7569 9.87837 19.2041 9.87837 18.5221V11.1134C9.87837 10.4314 9.32554 9.87855 8.64358 9.87855C7.96162 9.87855 7.40878 10.4314 7.40878 11.1134ZM14.8176 18.5221V11.1134C14.8176 10.4314 15.3704 9.87855 16.0524 9.87855C16.7343 9.87855 17.2872 10.4314 17.2872 11.1134V18.5221C17.2872 19.2041 16.7343 19.7569 16.0524 19.7569C15.3704 19.7569 14.8176 19.2041 14.8176 18.5221ZM11.1132 11.1134V18.5221C11.1132 19.2041 11.666 19.7569 12.348 19.7569C13.0299 19.7569 13.5827 19.2041 13.5827 18.5221V11.1134C13.5827 10.4314 13.0299 9.87855 12.348 9.87855C11.666 9.87855 11.1132 10.4314 11.1132 11.1134Z" fill="#939393"/>
</svg>
