<svg width="10" height="15" viewBox="0 0 10 15" fill="none" xmlns="http://www.w3.org/2000/svg">
<path d="M5.20861 0.155331C6.53461 0.155331 7.59411 0.519331 8.38711 1.24733C9.19311 1.97533 9.59611 2.96983 9.59611 4.23083C9.59611 5.54383 9.18011 6.53183 8.34811 7.19483C7.51611 7.85783 6.41111 8.18933 5.03311 8.18933L4.95511 9.72983H3.02461L2.92711 6.66833H3.57061C4.83161 6.66833 5.79361 6.49933 6.45661 6.16133C7.13261 5.82333 7.47061 5.17983 7.47061 4.23083C7.47061 3.54183 7.26911 3.00233 6.86611 2.61233C6.47611 2.22233 5.93011 2.02733 5.22811 2.02733C4.52611 2.02733 3.97361 2.21583 3.57061 2.59283C3.16761 2.96983 2.96611 3.49633 2.96611 4.17233H0.879609C0.879609 3.39233 1.05511 2.69683 1.40611 2.08583C1.75711 1.47483 2.25761 1.00033 2.90761 0.662332C3.57061 0.324331 4.33761 0.155331 5.20861 0.155331ZM3.96061 14.0393C3.55761 14.0393 3.21961 13.9028 2.94661 13.6298C2.67361 13.3568 2.53711 13.0188 2.53711 12.6158C2.53711 12.2128 2.67361 11.8748 2.94661 11.6018C3.21961 11.3288 3.55761 11.1923 3.96061 11.1923C4.35061 11.1923 4.68211 11.3288 4.95511 11.6018C5.22811 11.8748 5.36461 12.2128 5.36461 12.6158C5.36461 13.0188 5.22811 13.3568 4.95511 13.6298C4.68211 13.9028 4.35061 14.0393 3.96061 14.0393Z" fill="#C4C4C4"/>
</svg>
