<svg width="23" height="22" viewBox="0 0 23 22" fill="none" xmlns="http://www.w3.org/2000/svg">
<path fill-rule="evenodd" clip-rule="evenodd" d="M20.4644 13.3796C20.2069 13.5221 19.9593 13.6814 19.7234 13.8563C19.8062 14.1497 19.9135 14.4359 20.0442 14.7121L20.0576 14.744C20.4203 15.605 20.8657 16.662 20.2211 17.5288C19.5686 18.4063 18.374 18.3196 17.4118 18.2329C17.1062 18.2119 16.7994 18.2119 16.4938 18.2329C16.4226 18.4122 16.3327 18.7655 16.2671 19.0233L16.2671 19.0234L16.2504 19.0888C16.0403 20.0096 15.7638 21.1579 14.6909 21.4938C14.523 21.5479 14.3478 21.5771 14.1711 21.5804C13.3531 21.4717 12.5988 21.0889 12.0364 20.4971C11.8001 20.2543 11.545 20.0297 11.2733 19.8254C11.0047 20.002 10.7496 20.1975 10.5101 20.4104L10.5058 20.4141C9.78759 21.0201 8.8932 21.7749 7.85561 21.4938C6.81594 21.2121 6.50625 19.9771 6.2961 19.0563L6.27945 18.9909C6.21385 18.7331 6.12396 18.3797 6.05277 18.2004C5.74715 18.1794 5.44039 18.1794 5.13476 18.2004C4.17251 18.2871 2.98905 18.3846 2.32542 17.4963C1.67897 16.6309 2.11355 15.6011 2.47386 14.7473L2.50239 14.6796C2.63306 14.4034 2.74033 14.1172 2.82314 13.8238C2.58725 13.6489 2.33968 13.4896 2.08209 13.3471C1.25257 12.8921 0.212891 12.2421 0.212891 11.1588C0.212891 10.0754 1.25257 9.42544 2.08209 8.99211C2.33968 8.84958 2.58725 8.69033 2.82314 8.51544C2.74033 8.22204 2.63306 7.9358 2.50239 7.65961L2.48895 7.6277C2.1262 6.76672 1.68085 5.7097 2.32542 4.84294C2.97799 3.96544 4.17251 4.05211 5.13476 4.13877C5.44039 4.15985 5.74715 4.15985 6.05277 4.13877C6.12396 3.95949 6.21384 3.6062 6.27944 3.34835L6.27945 3.34831L6.2961 3.28294C6.50625 2.36211 6.78276 1.21378 7.85561 0.877942C8.90359 0.549897 9.75105 1.26586 10.4599 1.86467L10.5101 1.90711C10.7496 2.12006 11.0047 2.31559 11.2733 2.49211C11.5419 2.31559 11.7969 2.12006 12.0364 1.90711L12.0566 1.89006C12.7719 1.28637 13.65 0.545246 14.6909 0.877942C15.7417 1.21378 16.0403 2.36211 16.2504 3.28294L16.2671 3.34831C16.3327 3.60616 16.4226 3.95948 16.4938 4.13877C16.7994 4.15985 17.1062 4.15985 17.4118 4.13877C18.374 4.05211 19.5575 3.95461 20.2211 4.84294C20.8676 5.70829 20.433 6.73812 20.0727 7.59195L20.0442 7.65961C19.9135 7.9358 19.8062 8.22204 19.7234 8.51544C19.9593 8.69033 20.2069 8.84958 20.4644 8.99211C21.294 9.42544 22.3336 10.0754 22.3336 11.1588C22.3336 12.2421 21.294 12.8921 20.4644 13.3796ZM15.2771 7.60544C15.7515 7.97752 15.8305 8.65479 15.4541 9.12211L11.0299 14.5388C10.8361 14.7804 10.5466 14.9301 10.2336 14.9504H10.1672C9.87324 14.9521 9.59068 14.8391 9.38194 14.6363L7.16987 12.4696C6.73617 12.0448 6.73617 11.3561 7.16987 10.9313C7.60357 10.5065 8.30674 10.5065 8.74044 10.9313L10.0787 12.2421L13.7287 7.77877C14.1085 7.31412 14.8 7.23672 15.2771 7.60544ZM19.3252 10.7904C19.4911 10.8879 19.7234 11.0288 19.9114 11.1588C19.7234 11.2888 19.4911 11.4296 19.3584 11.4513C18.593 11.773 17.975 12.359 17.6219 13.0979C17.461 13.9125 17.6105 14.7566 18.0422 15.4704L18.2745 16.0446H17.633C16.8094 15.8684 15.9485 15.9916 15.2108 16.3913C14.5771 16.9516 14.1822 17.7252 14.1047 18.5579C14.088 18.6236 14.0696 18.6985 14.0503 18.7775C14.0186 18.9071 13.9843 19.0475 13.9499 19.1754C13.784 19.0563 13.607 18.9046 13.4853 18.7963C12.9076 18.174 12.1243 17.7713 11.2733 17.6588C10.4157 17.8128 9.64281 18.2624 9.09438 18.9263C8.97271 19.0346 8.79575 19.1863 8.62984 19.3054C8.61321 19.2436 8.59259 19.1787 8.57187 19.1136C8.52368 18.9622 8.47499 18.8092 8.47499 18.6879C8.3975 17.8552 8.00261 17.0816 7.36896 16.5213C6.63127 16.1216 5.77034 15.9984 4.94673 16.1746H4.30523L4.5375 15.6004C4.96922 14.8866 5.11875 14.0425 4.95779 13.2279C4.60475 12.489 3.98675 11.903 3.22131 11.5813C3.05541 11.4838 2.82314 11.3429 2.63511 11.2129C2.82314 11.0829 3.05541 10.9421 3.22131 10.8446C3.98675 10.5229 4.60475 9.93686 4.95779 9.19794C5.11875 8.38338 4.96922 7.53928 4.5375 6.82544L4.23887 6.25128H4.88037C5.70397 6.4275 6.5649 6.30429 7.30259 5.90461C7.93624 5.34425 8.33114 4.57067 8.40863 3.73794C8.42538 3.67233 8.44371 3.5974 8.46303 3.51845C8.49474 3.38883 8.52911 3.24836 8.56348 3.12044C8.72938 3.23961 8.90635 3.39128 9.02801 3.49961C9.61419 4.10186 10.3965 4.48498 11.2401 4.58294C12.0837 4.48498 12.866 4.10186 13.4522 3.49961C13.5738 3.39128 13.7508 3.23961 13.9167 3.12044C13.9333 3.18232 13.954 3.24714 13.9747 3.31225C14.0229 3.46371 14.0715 3.61672 14.0715 3.73794C14.149 4.57067 14.5439 5.34425 15.1776 5.90461C15.9153 6.30429 16.7762 6.4275 17.5998 6.25128H18.2413L18.009 6.82544C17.5907 7.52424 17.4416 8.34663 17.5887 9.14378C17.9418 9.88269 18.5598 10.4687 19.3252 10.7904Z" fill="#F0F0F0"/>
</svg>
