<svg width="14" height="14" viewBox="0 0 14 14" fill="none" xmlns="http://www.w3.org/2000/svg">
<path fill-rule="evenodd" clip-rule="evenodd" d="M3.43595 0.499964L11.7879 4.73101C13.0255 5.35951 13.2069 6.2148 13.2069 6.65539C13.2069 7.09599 13.0255 7.89944 11.7879 8.54738L3.43595 12.7655C3.08381 12.9504 2.69325 13.0502 2.29557 13.057C1.95799 13.0619 1.6258 12.9721 1.33662 12.7979C0.701995 12.362 0.346703 11.6218 0.403587 10.854V2.44378C0.343988 1.6755 0.699899 0.934017 1.33662 0.499964C1.98756 0.13022 2.78501 0.13022 3.43595 0.499964ZM2.8528 11.5928L11.1983 7.36174C11.6389 7.13496 11.911 6.84987 11.911 6.62309C11.911 6.39631 11.6389 6.11122 11.1983 5.89092L2.82688 1.65987C2.65575 1.56541 2.46496 1.51217 2.26965 1.50436C2.17878 1.50687 2.08986 1.53133 2.01048 1.57564C1.77696 1.77875 1.66028 2.08504 1.69946 2.39204V10.8541C1.66028 11.1611 1.77696 11.4674 2.01048 11.6705C2.28653 11.7875 2.60281 11.7583 2.8528 11.5928Z" fill="black"/>
</svg>
