<svg width="26" height="26" viewBox="0 0 26 26" fill="none" xmlns="http://www.w3.org/2000/svg">
<path fill-rule="evenodd" clip-rule="evenodd" d="M22.0025 15.2204C21.7502 15.363 21.5077 15.5222 21.2767 15.6971C21.3578 15.9905 21.4628 16.2767 21.5908 16.5529L21.604 16.5848C21.9593 17.4458 22.3955 18.5028 21.7642 19.3696C21.125 20.2471 19.955 20.1604 19.0125 20.0738C18.7131 20.0527 18.4127 20.0527 18.1133 20.0738C18.0436 20.253 17.9556 20.6063 17.8913 20.8641L17.8913 20.8642L17.875 20.9296C17.6692 21.8504 17.3983 22.9988 16.3475 23.3346C16.183 23.3887 16.0114 23.418 15.8383 23.4213C15.0372 23.3125 14.2983 22.9297 13.7475 22.3379C13.516 22.0951 13.2661 21.8705 13 21.6663C12.7369 21.8428 12.4871 22.0383 12.2525 22.2513L12.2483 22.2549C11.5448 22.861 10.6688 23.6157 9.65249 23.3346C8.63416 23.0529 8.33082 21.8179 8.12499 20.8971L8.10868 20.8317C8.04443 20.5739 7.95638 20.2206 7.88666 20.0413C7.58731 20.0202 7.28684 20.0202 6.98749 20.0413C6.04499 20.1279 4.88582 20.2254 4.23582 19.3371C3.60264 18.4717 4.0283 17.4419 4.38121 16.5881L4.40916 16.5204C4.53714 16.2442 4.64222 15.958 4.72332 15.6646C4.49227 15.4897 4.24979 15.3305 3.99749 15.1879C3.18499 14.7329 2.16666 14.0829 2.16666 12.9996C2.16666 11.9163 3.18499 11.2663 3.99749 10.8329C4.24979 10.6904 4.49227 10.5312 4.72332 10.3563C4.64222 10.0629 4.53714 9.77662 4.40916 9.50043L4.39599 9.46852C4.04069 8.60754 3.60448 7.55052 4.23582 6.68376C4.87499 5.80626 6.04499 5.89293 6.98749 5.9796C7.28684 6.00067 7.58731 6.00067 7.88666 5.9796C7.95638 5.8003 8.04443 5.44699 8.10868 5.18914L8.12499 5.12376C8.33082 4.20293 8.60166 3.0546 9.65249 2.71876C10.679 2.39072 11.509 3.10668 12.2033 3.70549L12.2525 3.74793C12.4871 3.96089 12.7369 4.15641 13 4.33293C13.2631 4.15641 13.5129 3.96089 13.7475 3.74793L13.7673 3.73088C14.4679 3.12719 15.3279 2.38607 16.3475 2.71876C17.3767 3.0546 17.6692 4.20293 17.875 5.12376L17.8913 5.18918C17.9556 5.44703 18.0436 5.80031 18.1133 5.9796C18.4127 6.00067 18.7131 6.00067 19.0125 5.9796C19.955 5.89293 21.1142 5.79543 21.7642 6.68376C22.3973 7.54911 21.9717 8.57894 21.6188 9.43278L21.5908 9.50043C21.4628 9.77662 21.3578 10.0629 21.2767 10.3563C21.5077 10.5312 21.7502 10.6904 22.0025 10.8329C22.815 11.2663 23.8333 11.9163 23.8333 12.9996C23.8333 14.0829 22.815 14.7329 22.0025 15.2204ZM16.9217 9.44616C17.3863 9.81824 17.4637 10.4955 17.095 10.9628L12.7617 16.3795C12.5718 16.6211 12.2883 16.7708 11.9817 16.7912H11.9167C11.6287 16.7928 11.3519 16.6798 11.1475 16.477L8.98082 14.3103C8.55602 13.8855 8.55602 13.1968 8.98082 12.772C9.40562 12.3472 10.0944 12.3472 10.5192 12.772L11.83 14.0828L15.405 9.61949C15.7771 9.15484 16.4543 9.07744 16.9217 9.44616ZM20.8867 12.631C21.0492 12.7285 21.2767 12.8694 21.4608 12.9994C21.2767 13.1294 21.0492 13.2702 20.9192 13.2919C20.1694 13.6136 19.5641 14.1996 19.2183 14.9385C19.0607 15.7531 19.2071 16.5972 19.63 17.311L19.8575 17.8852H19.2292C18.4225 17.709 17.5792 17.8322 16.8567 18.2319C16.236 18.7922 15.8492 19.5658 15.7733 20.3985C15.7569 20.4641 15.739 20.5391 15.7201 20.618C15.689 20.7476 15.6553 20.8881 15.6217 21.016C15.4592 20.8969 15.2858 20.7452 15.1667 20.6369C14.6007 20.0146 13.8335 19.6119 13 19.4994C12.1601 19.6534 11.403 20.103 10.8658 20.7669C10.7467 20.8752 10.5733 21.0269 10.4108 21.146C10.3945 21.0842 10.3743 21.0193 10.3541 20.9542C10.3069 20.8028 10.2592 20.6498 10.2592 20.5285C10.1833 19.6958 9.79647 18.9222 9.17583 18.3619C8.45328 17.9622 7.61003 17.839 6.80333 18.0152H6.175L6.4025 17.441C6.82535 16.7272 6.97182 15.8831 6.81416 15.0685C6.46837 14.3296 5.86305 13.7436 5.11333 13.4219C4.95083 13.3244 4.72333 13.1835 4.53916 13.0535C4.72333 12.9235 4.95083 12.7827 5.11333 12.6852C5.86305 12.3635 6.46837 11.7775 6.81416 11.0385C6.97182 10.224 6.82535 9.37987 6.4025 8.66604L6.11 8.09187H6.73833C7.54503 8.2681 8.38828 8.14488 9.11083 7.7452C9.73147 7.18485 10.1183 6.41126 10.1942 5.57854C10.2106 5.51293 10.2285 5.43802 10.2474 5.35907C10.2785 5.22945 10.3122 5.08896 10.3458 4.96104C10.5083 5.0802 10.6817 5.23187 10.8008 5.3402C11.375 5.94245 12.1412 6.32557 12.9675 6.42354C13.7938 6.32557 14.56 5.94245 15.1342 5.3402C15.2533 5.23187 15.4267 5.0802 15.5892 4.96104C15.6054 5.02292 15.6257 5.08774 15.6459 5.15284C15.6931 5.3043 15.7408 5.45731 15.7408 5.57854C15.8167 6.41126 16.2035 7.18485 16.8242 7.7452C17.5467 8.14488 18.39 8.2681 19.1967 8.09187H19.825L19.5975 8.66604C19.1878 9.36483 19.0417 10.1872 19.1858 10.9844C19.5316 11.7233 20.1369 12.3093 20.8867 12.631Z" fill="white"/>
</svg>
