<svg width="17" height="12" viewBox="0 0 17 12" fill="none" xmlns="http://www.w3.org/2000/svg">
<path fill-rule="evenodd" clip-rule="evenodd" d="M14.4217 10.2715C14.1151 10.5667 13.7085 10.7566 13.2605 10.7886L12.0224 10.8772C9.41156 11.064 6.79069 11.064 4.17982 10.8772L3.03534 10.7953C2.13122 10.7306 1.38549 10.0623 1.22257 9.1706C0.892487 7.364 0.835976 5.51804 1.05494 3.69463L1.26092 1.97934C1.38316 0.961393 2.24673 0.195312 3.27199 0.195312H5.00425C5.8492 0.195312 6.55317 0.798891 6.70853 1.59841L12.9937 1.59841C13.9812 1.59841 14.8223 2.31595 14.978 3.29111L15.0264 3.59457C15.0366 3.65833 15.0464 3.72214 15.0558 3.78598H15.3098C16.4229 3.78598 17.1881 4.90463 16.7847 5.94198L15.8402 8.37066C15.5469 9.12484 15.0549 9.7806 14.4217 10.2715ZM13.8582 3.46984L13.9067 3.77329C13.9074 3.77752 13.908 3.78175 13.9087 3.78598H6.86928C6.01077 3.78598 5.24057 4.31373 4.93065 5.11435L3.16794 9.66802L3.11625 9.66432C2.7281 9.63655 2.40795 9.34961 2.338 8.9668C2.02835 7.27204 1.97534 5.54035 2.18074 3.82982L2.38673 2.11453C2.44054 1.66643 2.82068 1.32921 3.27199 1.32921H5.00425C5.3369 1.32921 5.60655 1.59887 5.60655 1.93151C5.60655 2.37378 5.96508 2.7323 6.40735 2.7323H12.9937C13.4239 2.7323 13.7904 3.04494 13.8582 3.46984ZM4.35109 9.75259C6.87819 9.92911 9.41464 9.92698 11.9415 9.7462L13.1796 9.65762L13.3267 9.64387L13.3257 9.64203C13.9913 9.26644 14.5064 8.672 14.7834 7.95969L15.7279 5.53101C15.8422 5.23696 15.6253 4.91988 15.3098 4.91988H6.86928C6.47905 4.91988 6.12895 5.15976 5.98808 5.52368L4.35109 9.75259Z" fill="black"/>
</svg>
