<svg width="27" height="24" viewBox="0 0 27 24" fill="none" xmlns="http://www.w3.org/2000/svg">
<path d="M24.3113 11.2858L14.3654 21.2316C12.8057 22.8228 10.7226 23.7956 8.50126 23.97H7.93293C6.00004 23.9922 4.13895 23.2384 2.76626 21.8775C-0.256239 18.855 0.0408443 13.6366 3.42501 10.2525L12.3375 1.33996C12.8413 0.839153 13.655 0.839153 14.1588 1.33996C14.4033 1.58249 14.5408 1.91264 14.5408 2.25705C14.5408 2.60145 14.4033 2.9316 14.1588 3.17413L5.23335 12.0995C2.84376 14.4762 2.54668 18.0541 4.56168 20.0691C5.56856 21.0235 6.93961 21.4946 8.32043 21.3608C9.91817 21.2279 11.4139 20.5214 12.5313 19.3716L22.5417 9.46455C24.0407 8.19116 24.2472 5.95331 23.0067 4.42705C21.4846 3.18796 19.2509 3.39468 17.9821 4.89205L8.03626 14.8379C7.71108 15.1535 7.5095 15.575 7.46793 16.0262C7.43169 16.3564 7.54002 16.6861 7.76501 16.9304C8.42268 17.405 9.33502 17.2923 9.85751 16.672L20.3329 6.19663C20.8367 5.69582 21.6504 5.69582 22.1542 6.19663C22.3987 6.43916 22.5363 6.76931 22.5363 7.11371C22.5363 7.45812 22.3987 7.78826 22.1542 8.0308L11.6917 18.4933C10.1761 20.1486 7.60847 20.2698 5.94376 18.7645C4.43522 17.1033 4.55061 14.5358 6.2021 13.0166L16.0833 3.0708C18.3634 0.558736 22.2412 0.351308 24.7763 2.6058C27.0293 5.13656 26.8218 9.01022 24.3113 11.2858Z" fill="black"/>
</svg>
