<svg width="31" height="31" viewBox="0 0 31 31" fill="none" xmlns="http://www.w3.org/2000/svg">
<path fill-rule="evenodd" clip-rule="evenodd" d="M29.0771 11.2856L27.1667 10.6585L28.0708 8.87936C28.3583 8.31803 28.2524 7.6355 27.8083 7.1877L23.8125 3.17728C23.3647 2.7332 22.6822 2.62729 22.1208 2.91478L20.3417 3.83353L19.7146 1.9377C19.5113 1.31158 18.9138 0.899271 18.2563 0.931445H12.6708C12.0133 0.899271 11.4158 1.31158 11.2125 1.9377L10.6583 3.83353L8.87918 2.91478C8.31785 2.62729 7.63532 2.7332 7.18751 3.17728L3.1771 7.1877C2.73301 7.6355 2.6271 8.31803 2.9146 8.87936L3.83335 10.6585L1.93751 11.2856C1.31139 11.4889 0.899088 12.0864 0.931262 12.7439V18.4023C0.899088 19.0598 1.31139 19.6573 1.93751 19.8606L3.83335 20.4877L2.92918 22.2669C2.64169 22.8282 2.7476 23.5107 3.19168 23.9585L7.18751 27.8231C7.63532 28.2672 8.31785 28.3731 8.87918 28.0856L10.6583 27.1669L11.2854 29.0627C11.4887 29.6888 12.0863 30.1011 12.7438 30.0689H18.4021C19.0596 30.1011 19.6571 29.6888 19.8604 29.0627L20.4875 27.1669L22.2667 28.071C22.828 28.3585 23.5105 28.2526 23.9583 27.8085L27.9688 23.7981C28.4128 23.3503 28.5188 22.6678 28.2313 22.1064L27.1667 20.3419L29.0625 19.7148C29.6886 19.5115 30.1009 18.9139 30.0688 18.2564V12.671C30.0704 12.0441 29.6711 11.4862 29.0771 11.2856ZM8.20834 15.5002C8.20834 11.4731 11.4729 8.20853 15.5 8.20853C17.4339 8.20853 19.2885 8.97676 20.656 10.3442C22.0235 11.7117 22.7917 13.5663 22.7917 15.5002C22.7917 19.5273 19.5271 22.7919 15.5 22.7919C11.4729 22.7919 8.20834 19.5273 8.20834 15.5002ZM11.125 15.5002C11.125 17.9164 13.0838 19.8752 15.5 19.8752C16.6603 19.8752 17.7731 19.4143 18.5936 18.5938C19.4141 17.7733 19.875 16.6605 19.875 15.5002C19.875 13.0839 17.9163 11.1252 15.5 11.1252C13.0838 11.1252 11.125 13.0839 11.125 15.5002ZM26.2771 17.571L27.1667 17.2794V13.721L26.2771 13.4294C25.4674 13.168 24.8123 12.5661 24.4833 11.7814C24.1603 10.9937 24.1975 10.104 24.5854 9.34603L25.0083 8.5002L22.5 5.99186L21.6542 6.41478C20.8961 6.79702 20.0091 6.82996 19.2247 6.50501C18.4404 6.18007 17.8365 5.52948 17.5708 4.72311L17.2792 3.83353H13.7208L13.4292 4.72311C13.1635 5.52948 12.5597 6.18007 11.7753 6.50501C10.991 6.82996 10.1039 6.79702 9.34585 6.41478L8.50001 5.99186L5.99168 8.5002L6.4146 9.34603C6.80248 10.104 6.83977 10.9937 6.51668 11.7814C6.18773 12.5661 5.53258 13.168 4.72293 13.4294L3.83335 13.721V17.2794L4.72293 17.571C5.53258 17.8324 6.18773 18.4343 6.51668 19.2189C6.83977 20.0067 6.80248 20.8964 6.4146 21.6544L5.99168 22.5002L8.50001 25.0085L9.34585 24.5856C10.1039 24.2034 10.991 24.1704 11.7753 24.4954C12.5597 24.8203 13.1635 25.4709 13.4292 26.2773L13.7208 27.1669H17.2792L17.5708 26.2773C17.8365 25.4709 18.4404 24.8203 19.2247 24.4954C20.0091 24.1704 20.8961 24.2034 21.6542 24.5856L22.5 25.0085L25.0083 22.5002L24.5854 21.6544C24.1975 20.8964 24.1603 20.0067 24.4833 19.2189C24.8123 18.4343 25.4674 17.8324 26.2771 17.571Z" fill="black"/>
</svg>
